<?xml version="1.0" encoding="iso-8859-1"?>
<!-- Generator: Adobe Illustrator 19.0.0, SVG Export Plug-In . SVG Version: 6.00 Build 0)  -->
<svg xmlns="http://www.w3.org/2000/svg" xmlns:xlink="http://www.w3.org/1999/xlink" version="1.1" id="Layer_1" x="0px" y="0px" viewBox="0 0 511.85 511.85" style="enable-background:new 0 0 511.85 511.85;" xml:space="preserve" width="512" height="512">
<g id="XMLID_388_">
	<g id="XMLID_389_">
		<path id="XMLID_392_" style="fill:#E3F4FF;" d="M46.837,45.097c-8.35,4.093-13.618,12.994-13.512,22.709    c2.609,239.158,67.617,345.232,179.741,422.919c0.139,0.096,0.277,0.192,0.416,0.287c25.734,17.733,59.153,17.733,84.886,0    c0.139-0.096,0.277-0.191,0.416-0.287c112.125-77.687,177.132-183.762,179.741-422.919c0.106-9.715-5.162-18.617-13.512-22.709    C438.678,32.19,372.766,7.313,255.925,7.313S73.172,32.19,46.837,45.097z"/>
		<path id="XMLID_395_" style="fill:#BDDFF4;" d="M478.528,67.802c-2.615,239.16-67.619,345.24-179.744,422.92    c-0.142,0.1-0.275,0.19-0.417,0.29c-6.434,4.43-13.351,7.76-20.505,9.97c107.9-84.08,170.127-201.23,172.742-450.96    c0.047-4.39-0.872-8.63-2.587-12.4c6.851,2.72,12.508,5.27,16.999,7.47C473.363,49.192,478.632,58.093,478.528,67.802z"/>
		<g id="XMLID_396_">
			<g id="XMLID_397_">
				<circle id="XMLID_2400_" style="fill:#FD82AC;" cx="134.972" cy="222.616" r="18.861"/>
				<circle id="XMLID_2399_" style="fill:#FD82AC;" cx="376.878" cy="222.616" r="18.861"/>
			</g>
		</g>
		<g id="XMLID_398_">
			<path id="XMLID_401_" style="fill:#4E7693;" d="M237.465,402.449c-3.19,0-5.757,2.63-5.688,5.82     c1.161,53.882,11.528,96.044,24.148,96.044c12.62,0,22.987-42.162,24.148-96.044c0.069-3.19-2.498-5.82-5.688-5.82H237.465z"/>
		</g>
		<g id="XMLID_402_">
			<g id="XMLID_403_">
				<g id="XMLID_407_">
					<g id="XMLID_405_">
						<path id="XMLID_406_" style="fill:#4E7693;" d="M351.642,355.167h-58.109c-2.912,0-5.705-1.157-7.765-3.216l-14.062-14.062        c-2.058-2.058-2.058-5.396,0-7.454l8.075-8.075c2.058-2.058,5.396-2.058,7.454,0l10.846,10.846h49.012l42.778-42.778        c4.288-4.288,11.241-4.288,15.529,0v0c4.288,4.288,4.288,11.241,0,15.529l-45.994,45.995        C357.347,354.01,354.554,355.167,351.642,355.167z"/>
					</g>
				</g>
			</g>
			<g id="XMLID_409_">
				<g id="XMLID_412_">
					<g id="XMLID_411_">
						<path id="XMLID_2385_" style="fill:#4E7693;" d="M160.208,355.167h58.109c2.912,0,5.705-1.157,7.765-3.216l14.062-14.062        c2.058-2.058,2.058-5.396,0-7.454l-8.075-8.075c-2.058-2.058-5.396-2.058-7.454,0l-10.846,10.846h-49.012l-42.778-42.778        c-4.288-4.288-11.241-4.288-15.529,0l0,0c-4.288,4.288-4.288,11.241,0,15.529l45.994,45.995        C154.503,354.01,157.295,355.167,160.208,355.167z"/>
					</g>
				</g>
			</g>
		</g>
		<g id="XMLID_413_">
			<g id="XMLID_420_">
				<g id="XMLID_415_">
					<g id="XMLID_416_">
						<path id="XMLID_417_" style="fill:#38627C;" d="M292.702,131.488c-3.676,0-7.3-1.705-9.615-4.915        c-3.827-5.303-2.633-12.703,2.669-16.532c0.97-0.701,24.081-17.303,52.82-30.68c41.201-19.176,72.716-21.897,93.671-8.086        c5.462,3.6,6.972,10.945,3.372,16.408c-3.6,5.462-10.946,6.973-16.408,3.371c-28.403-18.716-97.591,22.337-119.589,38.195        C297.526,130.76,295.103,131.488,292.702,131.488z"/>
					</g>
					<g id="XMLID_418_">
						<path id="XMLID_419_" style="fill:#38627C;" d="M219.149,131.49c-2.401,0-4.825-0.728-6.921-2.24l0,0        C190.23,113.39,121.042,72.335,92.639,91.054c-5.463,3.601-12.808,2.09-16.408-3.371c-3.6-5.462-2.09-12.808,3.372-16.408        c20.954-13.811,52.469-11.091,93.671,8.086c28.739,13.377,51.85,29.98,52.82,30.68c5.303,3.829,6.498,11.233,2.669,16.536        C226.446,129.785,222.823,131.49,219.149,131.49z"/>
					</g>
				</g>
			</g>
			<g id="XMLID_425_">
				<g id="XMLID_426_">
					<path id="XMLID_2366_" style="fill:#38627C;" d="M397.483,143.155c2.333,13.409-15.674,32.201-40.219,41.974       c-24.545,9.773-46.335,6.826-48.668-6.583c-2.333-13.409,15.674-32.201,40.219-41.974       C373.361,126.799,395.15,129.746,397.483,143.155z"/>
				</g>
				<g id="XMLID_427_">
					<path id="XMLID_2362_" style="fill:#38627C;" d="M114.367,143.155c-2.333,13.409,15.674,32.201,40.219,41.974       c24.545,9.773,46.335,6.826,48.668-6.583c2.333-13.409-15.674-32.201-40.219-41.974       C138.489,126.799,116.7,129.746,114.367,143.155z"/>
				</g>
			</g>
		</g>
	</g>
	<g id="XMLID_429_">
		<path id="XMLID_431_" d="M37.228,152.027c4.129-0.327,7.212-3.939,6.885-8.068c-1.891-23.89-2.998-49.538-3.289-76.234    c-0.075-6.845,3.581-13.083,9.313-15.893c26.112-12.799,85.348-34.603,188.689-36.834c4.141-0.089,7.426-3.519,7.336-7.66    C246.075,3.252,242.735,0,238.668,0c-0.055,0-0.11,0.001-0.165,0.002C132.284,2.295,70.758,25.021,43.536,38.363    C32.64,43.702,25.688,55.292,25.825,67.889c0.295,27.034,1.417,53.026,3.335,77.254c0.311,3.928,3.595,6.908,7.468,6.908    C36.827,152.051,37.027,152.043,37.228,152.027z"/>
		<path id="XMLID_432_" d="M468.314,38.363C441.093,25.021,379.567,2.295,273.349,0.002C273.294,0.001,273.239,0,273.184,0    c-4.067,0-7.407,3.252-7.495,7.338c-0.089,4.142,3.195,7.571,7.336,7.66c103.34,2.231,162.575,24.035,188.688,36.835    c5.732,2.809,9.388,9.047,9.313,15.892c-1.512,138.635-24.031,237.327-70.868,310.59c-2.231,3.49-1.211,8.128,2.279,10.359    c1.251,0.8,2.65,1.182,4.033,1.182c2.473,0,4.895-1.223,6.326-3.461c48.417-75.732,71.686-176.94,73.229-318.506    C486.162,55.292,479.21,43.702,468.314,38.363z"/>
		<path id="XMLID_433_" d="M390.688,405.131c-3.24-2.581-7.959-2.044-10.539,1.195c-22.583,28.365-50.595,53.956-85.625,78.227    l-0.412,0.284c-6.147,4.237-12.773,7.338-19.621,9.33c1.856-4.435,3.547-9.71,5.081-15.853    c4.583-18.349,7.423-43.167,7.999-69.884c0.077-3.579-1.26-6.958-3.764-9.517c-2.502-2.557-5.848-3.964-9.422-3.964h-36.919    c-3.574,0-6.921,1.408-9.423,3.965c-2.504,2.559-3.841,5.938-3.763,9.516c0.575,26.717,3.416,51.535,7.998,69.884    c1.534,6.143,3.226,11.418,5.082,15.853c-6.846-1.991-13.471-5.092-19.617-9.327l-0.405-0.279    c-49.84-34.532-85.4-71.526-111.912-116.423c-29.769-50.414-48.723-112.547-57.946-189.951c-0.49-4.112-4.219-7.062-8.334-6.56    c-4.113,0.49-7.05,4.222-6.56,8.335c9.474,79.513,29.075,143.561,59.924,195.803c27.652,46.828,64.602,85.316,116.297,121.134    l0.42,0.29c14.185,9.774,30.44,14.661,46.698,14.661s32.518-4.889,46.704-14.664l0.428-0.295    c36.263-25.126,65.319-51.693,88.829-81.221C394.464,412.429,393.928,407.711,390.688,405.131z M272.531,409.949    c-0.591,22.982-2.938,44.596-6.636,61.036c-3.857,17.143-8.072,23.792-9.97,25.515c-1.898-1.723-6.113-8.371-9.97-25.514    c-3.699-16.441-6.045-38.055-6.636-61.037H272.531z"/>
		<path id="XMLID_436_" d="M108.612,222.616c0,14.535,11.825,26.36,26.36,26.36s26.36-11.825,26.36-26.36    c0-14.536-11.825-26.361-26.36-26.361S108.612,208.08,108.612,222.616z M146.332,222.616c0,6.264-5.096,11.36-11.36,11.36    s-11.36-5.097-11.36-11.36c0-6.265,5.096-11.361,11.36-11.361S146.332,216.352,146.332,222.616z"/>
		<path id="XMLID_439_" d="M350.517,222.616c0,14.535,11.825,26.36,26.36,26.36s26.36-11.825,26.36-26.36    c0-14.536-11.825-26.361-26.36-26.361S350.517,208.08,350.517,222.616z M388.238,222.616c0,6.264-5.096,11.36-11.36,11.36    s-11.36-5.097-11.36-11.36c0-6.265,5.096-11.361,11.36-11.361S388.238,216.352,388.238,222.616z"/>
		<path id="XMLID_442_" d="M147.141,357.256c3.491,3.489,8.132,5.411,13.067,5.411h45.635    c12.501,12.869,30.644,20.236,50.082,20.236c19.437,0,37.581-7.367,50.081-20.236h45.635c4.935,0,9.576-1.922,13.068-5.412    l45.994-45.995c7.206-7.206,7.206-18.931,0-26.137c-7.206-7.205-18.931-7.204-26.136,0l-40.581,40.582h-42.799l-8.65-8.65    c-4.979-4.977-13.08-4.976-18.06,0.001l-8.076,8.076c-2.412,2.412-3.74,5.619-3.74,9.03s1.329,6.619,3.74,9.03l14.062,14.062    c1.269,1.269,2.694,2.325,4.227,3.162c-8.344,4.833-18.289,7.487-28.767,7.487c-10.479,0-20.424-2.654-28.768-7.487    c1.533-0.838,2.958-1.893,4.227-3.162l14.061-14.061c2.413-2.412,3.742-5.619,3.742-9.031c0-3.411-1.329-6.619-3.741-9.031    l-8.076-8.075c-4.979-4.979-13.08-4.978-18.06,0l-8.649,8.649h-42.799l-40.581-40.582c-7.206-7.205-18.93-7.205-26.136,0    c-7.206,7.206-7.206,18.931,0,26.137L147.141,357.256z M278.586,334.162l4.923-4.923l9.27,9.27    c1.406,1.406,3.314,2.196,5.303,2.196h49.012c1.989,0,3.897-0.79,5.303-2.196l42.778-42.778c1.357-1.357,3.565-1.358,4.923,0    c0.887,0.887,1.02,1.923,1.02,2.461s-0.133,1.574-1.02,2.461l-45.993,45.994c-0.658,0.658-1.533,1.021-2.462,1.021h-58.109    c-0.929,0-1.804-0.362-2.461-1.021L278.586,334.162z M111.752,295.73c0.679-0.679,1.57-1.019,2.461-1.019    c0.892,0,1.783,0.34,2.461,1.019l42.778,42.778c1.406,1.406,3.314,2.196,5.303,2.196h49.012c1.989,0,3.897-0.79,5.303-2.196    l9.27-9.27l4.923,4.923l-12.485,12.484c-0.658,0.658-1.532,1.021-2.461,1.021h-58.109c-0.93,0-1.804-0.362-2.461-1.02    l-45.994-45.995c-0.887-0.887-1.02-1.923-1.02-2.461S110.865,296.617,111.752,295.73z"/>
		<path id="XMLID_446_" d="M238.031,282.09c-3.941-1.282-8.171,0.871-9.453,4.811c-1.282,3.938,0.872,8.171,4.811,9.453    c6.652,2.165,14.445,3.31,22.536,3.31s15.884-1.145,22.536-3.31c3.938-1.282,6.092-5.515,4.811-9.453    c-1.282-3.938-5.513-6.091-9.453-4.811c-5.172,1.684-11.359,2.573-17.894,2.573C249.391,284.663,243.203,283.773,238.031,282.09z"/>
		<path id="XMLID_447_" d="M441.881,91.811c2.844-4.314,3.837-9.479,2.797-14.54c-1.04-5.061-3.989-9.414-8.304-12.258    c-23.274-15.339-57.244-12.8-100.963,7.549c-29.469,13.717-53.06,30.688-54.045,31.399c-8.644,6.241-10.6,18.354-4.361,27    c3.625,5.026,9.494,8.026,15.698,8.026c4.082,0,7.991-1.264,11.305-3.654c9.574-6.901,32.123-21.245,55.91-31.231    c25.787-10.825,45.38-13.235,55.165-6.786c4.315,2.844,9.478,3.837,14.541,2.799C434.684,99.074,439.038,96.124,441.881,91.811z     M429.356,83.556c-0.639,0.97-1.616,1.632-2.752,1.865c-1.137,0.233-2.296,0.01-3.267-0.63    c-38.667-25.481-127.212,37.732-128.104,38.375c-0.94,0.679-1.896,0.821-2.531,0.821c-1.419,0-2.707-0.657-3.533-1.803    c-1.401-1.941-0.962-4.661,0.982-6.064c0.942-0.682,23.405-16.84,51.59-29.959c23.021-10.715,42.632-16.08,58.669-16.08    c10.909,0,20.166,2.484,27.71,7.457c0.969,0.638,1.631,1.616,1.865,2.752C430.219,81.427,429.995,82.586,429.356,83.556z"/>
		<path id="XMLID_450_" d="M230.488,103.964c-0.99-0.715-24.581-17.686-54.049-31.402c-43.719-20.349-77.688-22.89-100.963-7.549    c-4.314,2.844-7.264,7.197-8.304,12.258c-1.04,5.062-0.047,10.226,2.797,14.54c5.871,8.905,17.893,11.375,26.797,5.506    c9.79-6.45,29.38-4.042,55.167,6.784c23.787,9.985,46.336,24.331,55.907,31.23c3.316,2.394,7.227,3.658,11.31,3.658    c6.2,0,12.066-2.998,15.693-8.021c3.025-4.189,4.237-9.306,3.414-14.407C237.433,111.461,234.673,106.986,230.488,103.964z     M222.681,122.188c-0.827,1.145-2.114,1.802-3.532,1.802c-0.635,0-1.591-0.143-2.535-0.824    c-0.741-0.534-62.216-44.424-105.104-44.424c-8.635,0-16.518,1.779-22.999,6.051c-2,1.319-4.7,0.764-6.019-1.237    c-0.639-0.969-0.862-2.128-0.628-3.265c0.234-1.136,0.896-2.114,1.865-2.752c18.636-12.283,47.699-9.382,86.378,8.623    c28.186,13.119,50.648,29.277,51.594,29.962c0.941,0.679,1.561,1.684,1.746,2.829    C223.633,120.098,223.361,121.247,222.681,122.188z"/>
		<path id="XMLID_453_" d="M404.872,141.869L404.872,141.869c-1.072-6.159-4.727-11.142-10.571-14.409    c-11.167-6.244-29.208-5.442-48.261,2.145c-28.563,11.372-47.837,32.965-44.833,50.227c1.072,6.16,4.727,11.143,10.571,14.41    c4.99,2.79,11.351,4.173,18.562,4.173c8.928,0,19.159-2.121,29.698-6.317C388.601,180.725,407.876,159.132,404.872,141.869z     M354.49,178.161c-16.434,6.544-29.616,6.216-35.392,2.987c-2.419-1.353-2.935-2.866-3.112-3.889    c-1.328-7.632,11.574-24.152,35.604-33.72c9.369-3.73,17.68-5.228,24.165-5.228c4.891,0,8.745,0.853,11.227,2.24    c2.419,1.353,2.935,2.867,3.112,3.888c0,0,0,0,0,0.001C391.422,152.073,378.519,168.594,354.49,178.161z"/>
		<path id="XMLID_456_" d="M200.072,194.241c5.844-3.268,9.499-8.25,10.571-14.409c3.004-17.263-16.27-38.855-44.833-50.228    c-19.053-7.588-37.094-8.388-48.261-2.145c-5.844,3.268-9.499,8.25-10.571,14.409c-3.003,17.263,16.271,38.855,44.834,50.228    c10.54,4.197,20.77,6.317,29.698,6.317C188.72,198.414,195.082,197.03,200.072,194.241z M157.36,178.161    c-24.03-9.567-36.933-26.088-35.604-33.72c0-0.001,0-0.001,0-0.001c0.178-1.021,0.693-2.535,3.112-3.888    c2.483-1.388,6.335-2.24,11.227-2.24c6.485,0,14.797,1.498,24.165,5.228c24.03,9.567,36.933,26.088,35.604,33.721    c-0.178,1.021-0.693,2.535-3.112,3.888C186.976,184.377,173.795,184.703,157.36,178.161z"/>
		<path id="XMLID_459_" d="M266.448,174.321l15.381,96.135c0.59,3.689,3.776,6.316,7.396,6.316c0.394,0,0.793-0.031,1.194-0.095    c4.09-0.655,6.875-4.501,6.221-8.591l-15.381-96.135c-0.655-4.091-4.497-6.867-8.591-6.222    C268.579,166.386,265.794,170.231,266.448,174.321z"/>
		<path id="XMLID_460_" d="M230.59,171.952l-15.381,96.135c-0.654,4.09,2.131,7.936,6.221,8.591c0.401,0.063,0.8,0.095,1.194,0.095    c3.62,0,6.806-2.627,7.396-6.316l15.381-96.135c0.654-4.09-2.131-7.936-6.221-8.591    C235.094,165.083,231.245,167.861,230.59,171.952z"/>
		<path id="XMLID_461_" d="M433.464,203.296c-0.253-4.134-3.822-7.255-7.944-7.027c-4.135,0.254-7.281,3.811-7.027,7.945    c1.486,24.248-13.531,46.709-36.52,54.619c-17.628,6.064-36.877,2.746-51.491-8.882c-3.242-2.578-7.959-2.041-10.539,1.199    c-2.579,3.242-2.042,7.96,1.2,10.539c12.503,9.948,27.667,15.13,43.085,15.13c7.576,0,15.213-1.251,22.626-3.803    C416.194,262.92,435.361,234.25,433.464,203.296z"/>
		<path id="XMLID_462_" d="M124.995,273.017c7.415,2.552,15.049,3.803,22.626,3.803c15.417,0,30.583-5.183,43.085-15.13    c3.242-2.579,3.778-7.297,1.2-10.539c-2.579-3.241-7.297-3.778-10.539-1.199c-14.615,11.628-33.863,14.947-51.492,8.882    c-22.988-7.91-38.005-30.371-36.519-54.619c0.253-4.135-2.893-7.691-7.027-7.945c-4.114-0.234-7.691,2.893-7.944,7.027    C76.489,234.25,95.656,262.92,124.995,273.017z"/>
	</g>
</g>















</svg>
