<svg height="512pt" viewBox="-4 0 512 512" width="512pt" xmlns="http://www.w3.org/2000/svg"><path d="m187.742188 426.667969c-3.671876-.003907-6.929688-2.355469-8.089844-5.839844l-34.132813-102.398437c-.964843-2.894532-.308593-6.085938 1.71875-8.367188 2.027344-2.285156 5.117188-3.3125 8.105469-2.699219s5.425781 2.777344 6.390625 5.671875l34.132813 102.402344c.867187 2.605469.425781 5.472656-1.183594 7.699219-1.609375 2.222656-4.195313 3.539062-6.941406 3.53125zm0 0" fill="#7f8c8d"/><path d="m307.207031 426.667969c-2.738281-.003907-5.3125-1.324219-6.914062-3.546875-1.605469-2.222656-2.039063-5.082032-1.171875-7.683594l34.132812-102.402344c.960938-2.894531 3.398438-5.058594 6.386719-5.671875 2.992187-.613281 6.082031.414063 8.105469 2.699219 2.027344 2.28125 2.683594 5.472656 1.71875 8.367188l-34.132813 102.398437c-1.164062 3.496094-4.4375 5.851563-8.125 5.839844zm0 0" fill="#7f8c8d"/><path d="m247.476562 426.667969c-4.714843 0-8.535156-3.820313-8.535156-8.535157v-68.265624c0-4.714844 3.820313-8.535157 8.535156-8.535157 4.710938 0 8.53125 3.820313 8.53125 8.535157v68.265624c0 4.714844-3.820312 8.535157-8.53125 8.535157zm0 0" fill="#7f8c8d"/><path d="m286.132812 345.855469h-.085937c-4.703125-.023438-8.503906-3.847657-8.492187-8.554688.011718-4.703125 3.828124-8.511719 8.535156-8.511719 4.703125 0 8.519531 3.808594 8.53125 8.511719.011718 4.707031-3.785156 8.53125-8.488282 8.554688zm0 0"/><path d="m237.832031 221.78125v127.316406h-.085937c-5.203125.511719-10.496094.769532-15.871094.769532-45.265625.011718-88.683594-17.964844-120.695312-49.972657-32.007813-32.007812-49.984376-75.425781-49.972657-120.695312 0-4.691407.171875-9.214844.597657-13.738281 28.050781 21.53125 60.464843 36.671874 94.976562 44.375 29.804688 7.394531 60.347656 11.402343 91.050781 11.945312zm0 0" fill="#c03a2b"/><path d="m237.832031 9.300781v212.480469c-30.703125-.542969-61.246093-4.550781-91.050781-11.945312-34.511719-7.703126-66.925781-22.84375-94.976562-44.375 0-1.109376.171874-2.21875.257812-3.328126l43.519531-97.707031c27.988281-30.875 66.339844-50.402343 107.777344-54.867187 6.148437-.691406 12.328125-1.03125 18.515625-1.023438 5.375 0 10.667969.253906 15.871094.765625zm0 0" fill="#e64c3c"/><path d="m286.132812 29.609375h-.085937c-4.703125-.023437-8.503906-3.847656-8.492187-8.554687.011718-4.703126 3.828124-8.511719 8.535156-8.511719 4.703125 0 8.519531 3.808593 8.53125 8.511719.011718 4.707031-3.785156 8.53125-8.488282 8.554687zm0 0"/><path d="m443.742188 179.199219c.066406 27.921875-6.796876 55.425781-19.96875 80.042969l-82.347657 76.375c-21.554687 9.414062-44.828125 14.265624-68.351562 14.25-5.375 0-10.664063-.257813-15.871094-.769532h-.085937v-127.316406c30.703124-.542969 61.246093-4.550781 91.050781-11.945312 34.511719-7.703126 66.925781-22.84375 94.976562-44.375.425781 4.523437.597657 9.132812.597657 13.738281zm0 0" fill="#c03a2b"/><path d="m443.144531 165.460938c-28.050781 21.53125-60.464843 36.671874-94.976562 44.375-29.804688 7.394531-60.347657 11.402343-91.050781 11.945312v-212.480469h.085937c5.207031-.511719 10.496094-.765625 15.871094-.765625 88.9375-.035156 162.96875 68.273438 170.070312 156.925782zm0 0" fill="#e64c3c"/><path d="m348.167969 209.835938c-6.226563 58.027343-30.121094 105.8125-62.035157 127.488281h-.085937c-8.605469 6.042969-18.464844 10.070312-28.84375 11.773437h-.085937c-6.386719 1.023438-12.898438 1.023438-19.285157 0h-.085937c-10.375-1.703125-20.234375-5.730468-28.839844-11.773437h-.085938c-31.914062-21.675781-55.808593-69.460938-62.039062-127.488281 32.945312 8.128906 66.761719 12.167968 100.695312 12.03125 33.929688.136718 67.75-3.902344 100.691407-12.03125zm0 0" fill="#bdc3c7"/><path d="m349.875 179.199219c0 10.234375-.566406 20.464843-1.707031 30.636719-32.941407 8.128906-66.761719 12.167968-100.691407 12.03125-33.933593.136718-67.75-3.902344-100.695312-12.03125-1.136719-10.171876-1.707031-20.402344-1.707031-30.636719.003906-10.375.574219-20.746094 1.707031-31.0625l5.378906-31.402344c13.820313-58.621094 46.503906-101.289063 85.585938-107.433594h.085937c6.386719-1.023437 12.898438-1.023437 19.285157 0h.085937c51.96875 8.105469 92.671875 81.066407 92.671875 169.898438zm0 0" fill="#ecf0f1"/><path d="m187.742188 162.132812c-4.710938 0-8.535157-3.820312-8.535157-8.53125.101563-21.453124 4.085938-42.710937 11.761719-62.746093 1.042969-2.898438 3.566406-5.007813 6.601562-5.523438 3.035157-.515625 6.113282.648438 8.054688 3.039063 1.9375 2.390625 2.441406 5.644531 1.308594 8.507812-6.945313 18.109375-10.558594 37.324219-10.65625 56.722656 0 4.710938-3.824219 8.53125-8.535156 8.53125zm0 0" fill="#bdc3c7"/><path d="m213.34375 72.480469c-3.070312-.003907-5.902344-1.65625-7.414062-4.324219-1.511719-2.671875-1.476563-5.949219.097656-8.585938 2.773437-4.757812 5.84375-9.332031 9.191406-13.703124 2.988281-3.523438 8.234375-4.027344 11.839844-1.144532 3.605468 2.886719 4.261718 8.117188 1.480468 11.800782-2.859374 3.777343-5.492187 7.714843-7.882812 11.804687-1.539062 2.570313-4.316406 4.148437-7.3125 4.152344zm0 0" fill="#bdc3c7"/><g fill="#f0c419"><path d="m452.277344 42.667969h-8.535156c-4.710938 0-8.535157-3.820313-8.535157-8.535157 0-4.710937 3.824219-8.53125 8.535157-8.53125h8.535156c4.710937 0 8.53125 3.820313 8.53125 8.53125 0 4.714844-3.820313 8.535157-8.53125 8.535157zm0 0"/><path d="m494.941406 42.667969h-8.53125c-4.714844 0-8.535156-3.820313-8.535156-8.535157 0-4.710937 3.820312-8.53125 8.535156-8.53125h8.53125c4.714844 0 8.535156 3.820313 8.535156 8.53125 0 4.714844-3.820312 8.535157-8.535156 8.535157zm0 0"/><path d="m469.34375 68.265625c-4.714844 0-8.535156-3.820313-8.535156-8.53125v-8.535156c0-4.710938 3.820312-8.53125 8.535156-8.53125 4.710938 0 8.53125 3.820312 8.53125 8.53125v8.535156c0 4.710937-3.820312 8.53125-8.53125 8.53125zm0 0"/><path d="m469.34375 25.601562c-4.714844 0-8.535156-3.820312-8.535156-8.535156v-8.53125c0-4.714844 3.820312-8.535156 8.535156-8.535156 4.710938 0 8.53125 3.820312 8.53125 8.535156v8.53125c0 4.714844-3.820312 8.535156-8.53125 8.535156zm0 0"/><path d="m25.609375 418.132812h-8.535156c-4.710938 0-8.53125-3.820312-8.53125-8.53125 0-4.714843 3.820312-8.535156 8.53125-8.535156h8.535156c4.710937 0 8.53125 3.820313 8.53125 8.535156 0 4.710938-3.820313 8.53125-8.53125 8.53125zm0 0"/><path d="m68.277344 418.132812h-8.535156c-4.710938 0-8.535157-3.820312-8.535157-8.53125 0-4.714843 3.824219-8.535156 8.535157-8.535156h8.535156c4.710937 0 8.53125 3.820313 8.53125 8.535156 0 4.710938-3.820313 8.53125-8.53125 8.53125zm0 0"/><path d="m42.675781 443.734375c-4.714843 0-8.535156-3.820313-8.535156-8.535156v-8.53125c0-4.714844 3.820313-8.535157 8.535156-8.535157 4.710938 0 8.53125 3.820313 8.53125 8.535157v8.53125c0 4.714843-3.820312 8.535156-8.53125 8.535156zm0 0"/><path d="m42.675781 401.066406c-4.714843 0-8.535156-3.820312-8.535156-8.53125v-8.535156c0-4.710938 3.820313-8.535156 8.535156-8.535156 4.710938 0 8.53125 3.824218 8.53125 8.535156v8.535156c0 4.710938-3.820312 8.53125-8.53125 8.53125zm0 0"/><path d="m435.207031 477.867188h-8.53125c-4.714843 0-8.535156-3.820313-8.535156-8.535157 0-4.710937 3.820313-8.53125 8.535156-8.53125h8.53125c4.714844 0 8.535157 3.820313 8.535157 8.53125 0 4.714844-3.820313 8.535157-8.535157 8.535157zm0 0"/><path d="m477.875 477.867188h-8.53125c-4.714844 0-8.535156-3.820313-8.535156-8.535157 0-4.710937 3.820312-8.53125 8.535156-8.53125h8.53125c4.714844 0 8.535156 3.820313 8.535156 8.53125 0 4.714844-3.820312 8.535157-8.535156 8.535157zm0 0"/><path d="m452.277344 503.464844c-4.714844 0-8.535156-3.820313-8.535156-8.53125v-8.535156c0-4.710938 3.820312-8.53125 8.535156-8.53125 4.710937 0 8.53125 3.820312 8.53125 8.53125v8.535156c0 4.710937-3.820313 8.53125-8.53125 8.53125zm0 0"/><path d="m452.277344 460.800781c-4.714844 0-8.535156-3.820312-8.535156-8.535156v-8.53125c0-4.714844 3.820312-8.535156 8.535156-8.535156 4.710937 0 8.53125 3.820312 8.53125 8.535156v8.53125c0 4.714844-3.820313 8.535156-8.53125 8.535156zm0 0"/></g><path d="m153.609375 126.804688c.230469 9.144531-3.183594 18.007812-9.488281 24.632812-6.308594 6.625-14.988282 10.472656-24.132813 10.695312h-91.136719c-7.84375-.191406-15.285156-3.492187-20.695312-9.171874-5.410156-5.683594-8.339844-13.277344-8.1484375-21.121094.0078125-2.855469.4101565-5.699219 1.1953125-8.449219 3.265625-12.648437 14.585937-21.558594 27.648437-21.757813.457032.019532.914063.078126 1.367188.167969-.886719-3.339843-1.34375-6.78125-1.367188-10.238281-.019531-2.316406.179688-4.632812.597657-6.910156.070312-.605469.1875-1.203125.339843-1.792969 3.386719-18.109375 19.042969-31.339844 37.460938-31.660156 21.734375.578125 38.90625 18.628906 38.402344 40.363281h14.335937c15.757813.234375 29.269531 11.304688 32.597657 26.710938.691406 2.789062 1.035156 5.65625 1.023437 8.53125zm0 0" fill="#95a5a5"/><path d="m152.585938 118.273438c-3.289063 15.441406-16.8125 26.558593-32.597657 26.792968h-91.136719c-13.039062-.191406-24.351562-9.058594-27.648437-21.675781 3.265625-12.648437 14.585937-21.558594 27.648437-21.757813.457032.019532.914063.078126 1.367188.167969-.886719-3.339843-1.34375-6.78125-1.367188-10.238281-.019531-2.316406.179688-4.632812.597657-6.910156.257812-.015625.519531.011718.769531.082031-.183594-.613281-.328125-1.242187-.429688-1.875 3.386719-18.109375 19.042969-31.339844 37.460938-31.660156 21.734375.578125 38.90625 18.628906 38.402344 40.363281h14.335937c15.757813.234375 29.269531 11.304688 32.597657 26.710938zm0 0" fill="#bdc3c7"/><path d="m494.941406 331.605469c.230469 9.144531-3.179687 18.007812-9.488281 24.632812-6.304687 6.625-14.988281 10.472657-24.132813 10.695313h-91.136718c-7.839844-.191406-15.285156-3.492188-20.695313-9.171875-5.40625-5.683594-8.339843-13.28125-8.144531-21.121094.007812-2.859375.410156-5.699219 1.191406-8.449219 3.265625-12.652344 14.585938-21.558594 27.648438-21.757812.460937.019531.917968.074218 1.367187.167968-.882812-3.339843-1.34375-6.78125-1.367187-10.238281-.019532-2.316406.179687-4.632812.597656-6.914062.074219-.601563.1875-1.203125.34375-1.789063 3.382812-18.109375 19.039062-31.339844 37.460938-31.660156 21.734374.578125 38.90625 18.625 38.398437 40.363281h14.335937c15.757813.230469 29.273438 11.304688 32.597657 26.707031.691406 2.792969 1.035156 5.660157 1.023437 8.535157zm0 0" fill="#95a5a5"/><path d="m493.917969 323.070312c-3.285157 15.441407-16.8125 26.5625-32.597657 26.796876h-91.136718c-13.039063-.191407-24.347656-9.058594-27.648438-21.675782 3.265625-12.652344 14.585938-21.558594 27.648438-21.757812.460937.019531.917968.074218 1.367187.167968-.882812-3.339843-1.34375-6.78125-1.367187-10.238281-.019532-2.316406.179687-4.632812.597656-6.914062.261719-.011719.519531.015625.769531.085937-.183593-.613281-.324219-1.242187-.425781-1.875 3.382812-18.109375 19.039062-31.339844 37.460938-31.660156 21.734374.578125 38.90625 18.625 38.398437 40.363281h14.335937c15.757813.230469 29.273438 11.304688 32.597657 26.707031zm0 0" fill="#bdc3c7"/><path d="m307.207031 409.601562h-119.464843c-4.710938 0-8.535157 3.820313-8.535157 8.53125v59.734376c0 18.851562 15.285157 34.132812 34.136719 34.132812h68.265625c18.851563 0 34.132813-15.28125 34.132813-34.132812v-59.734376c0-4.710937-3.820313-8.53125-8.535157-8.53125zm0 0" fill="#b19046"/><path d="m292.277344 409.601562h-89.601563c-3.523437 0-6.398437 3.839844-6.398437 8.53125v59.734376c0 18.859374 11.457031 34.132812 25.597656 34.132812h51.199219c14.140625 0 25.601562-15.273438 25.601562-34.132812v-59.734376c0-4.691406-2.875-8.53125-6.398437-8.53125zm0 0" fill="#e4c05c"/><path d="m221.875 452.265625c0 4.714844-3.820312 8.535156-8.53125 8.535156h-34.136719v-17.066406h34.136719c4.710938 0 8.53125 3.820313 8.53125 8.53125zm0 0" fill="#b19046"/><path d="m315.742188 443.734375v17.066406h-68.265626c-4.714843 0-8.535156-3.820312-8.535156-8.535156 0-4.710937 3.820313-8.53125 8.535156-8.53125zm0 0" fill="#b19046"/></svg>