<svg height="512pt" viewBox="0 0 512 512.00007" width="512pt" xmlns="http://www.w3.org/2000/svg"><path d="m455.960938 198.828125c.09375-.273437.195312-.539063.28125-.804687.855468-2.398438 1.511718-4.855469 2.109374-7.347657.136719-.5625.296876-1.117187.425782-1.707031.511718-2.320312.855468-4.691406 1.203125-7.082031.085937-.671875.230469-1.339844.308593-2.019531.328126-3.058594.5-6.128907.511719-9.199219 0-21.699219-8.300781-42.574219-23.203125-58.34375-.578125-.621094-1.109375-1.296875-1.707031-1.902344-.597656-.589844-1.246094-1.117187-1.859375-1.707031-13.605469-12.9375-31.117188-20.996094-49.792969-22.914063-2.914062-.304687-5.839843-.460937-8.773437-.46875-10.265625 0-20.441406 1.898438-30.019532 5.597657-1.371093.523437-2.78125.984374-4.113281 1.570312-.628906-45.871094-37.410156-83.035156-83.273437-84.136719-45.863282-1.101562-84.390625 34.253907-87.222656 80.042969-1.988282-1.179688-4.121094-2.125-6.210938-3.140625-.734375-.351563-1.40625-.800781-2.148438-1.128906l-.34375-.144531c-1.253906-.554688-2.558593-1.003907-3.832031-1.492188-2.003906-.785156-4.027343-1.5-6.101562-2.125-1.132813-.332031-2.261719-.640625-3.410157-.921875-2.367187-.597656-4.761718-1.074219-7.203124-1.46875-1.007813-.160156-2.007813-.355469-3.023438-.484375-3.503906-.445312-7.03125-.679688-10.5625-.699219-2.914062 0-5.824219.148438-8.722656.441407-18.675782 1.917968-36.1875 9.976562-49.789063 22.914062-.617187.570312-1.265625 1.101562-1.863281 1.707031-.605469.605469-1.132812 1.277344-1.703125 1.902344-17.273437 18.246094-25.558594 43.210937-22.625 68.164063.171875 1.460937.488281 2.859374.734375 4.265624.289062 1.707032.519531 3.414063.914062 5.121094.453126 1.945313 1.058594 3.824219 1.636719 5.71875.324219 1.046875.597657 2.125.957031 3.15625.851563 2.457032 1.886719 4.847656 2.960938 7.203125.121094.253907.207031.535157.324219.792969 5.777343 12.433594 14.449219 23.304688 25.292969 31.699219-15.96875 15.980469-24.933594 37.65625-24.917969 60.246093-.019531 12.484376 2.75 24.820313 8.109375 36.097657 16.050781 34.933593 53.65625 54.636719 91.519531 47.949219l-4.59375 40.234374 58.566406-21.878906-30.925781-25.773437c29.335938-14.261719 47.96875-44.007813 47.992188-76.628907.015624-2.449218-.097657-4.898437-.34375-7.339843-.21875-2.6875-.605469-5.332031-1.074219-7.941407.46875 2.609376.855469 5.253907 1.074219 7.941407 21.945312 9.785156 47.007812 9.785156 68.953124 0 .21875-2.609375.578126-5.179688 1.03125-7.722657-.453124 2.5625-.8125 5.121094-1.03125 7.722657-.246093 2.441406-.359374 4.890625-.34375 7.339843.023438 32.621094 18.65625 62.367188 47.992188 76.628907l-30.925781 25.773437 58.503906 21.878906-4.554687-40.246093c23.792968 4.210937 48.25-1.921875 67.246093-16.855469 18.992188-14.9375 30.714844-37.261719 32.234375-61.375.085938-1.878906.171875-3.839844.171875-5.804688.042969-22.347656-8.726562-43.8125-24.40625-59.734374 8.769531-8.953126 15.453125-19.734376 19.566407-31.570313zm-120.089844 15.785156c1.273437-.632812 2.5625-1.238281 3.808594-1.835937-1.300782.597656-2.5625 1.238281-3.851563 1.902344zm-159.742188 0c0 .09375.09375.1875.128906.28125-1.75-.921875-3.414062-1.953125-5.25-2.757812 1.707032.769531 3.414063 1.625 5.121094 2.476562zm37.972656 40.019531c.160157.359376.289063.734376.445313 1.09375-.171875-.390624-.359375-.757812-.53125-1.144531zm83.917969-.066406c-.394531.851563-.777343 1.707032-1.144531 2.558594.347656-.851562.648438-1.707031 1.023438-2.5zm-79.363281 12.59375c.402344 1.425782.734375 2.886719 1.058594 4.34375-.324219-1.457031-.65625-2.917968-1.058594-4.34375zm-2.414062-7.304687c.4375 1.144531.855468 2.304687 1.222656 3.476562-.386719-1.171875-.785156-2.332031-1.222656-3.476562zm76.953124 7.765625c-.390624 1.445312-.707031 2.917968-1.023437 4.394531.324219-1.507813.625-2.949219 1.023437-4.394531zm2.339844-7.226563c-.460937 1.238281-.855468 2.507813-1.261718 3.773438.40625-1.265625.800781-2.535157 1.261718-3.773438zm0 0" fill="#ff5364"/><path d="m170.667969 204.800781c-.015625 2.449219.097656 4.898438.339843 7.335938-10.832031-4.886719-22.589843-7.386719-34.472656-7.335938-22.679687-.035156-44.433594 8.996094-60.417968 25.085938-29.039063-22.234375-40.683594-60.503907-28.941407-95.144531 11.738281-34.640626 44.25-57.945313 80.824219-57.941407 15.0625-.050781 29.859375 3.960938 42.835938 11.605469 17.597656 10.175781 30.972656 26.308594 37.71875 45.480469-23.695313 15.8125-37.914063 42.425781-37.886719 70.914062zm0 0" fill="#894b9d"/><path d="m196.265625 140.800781c-.003906 12.414063-2.988281 24.644531-8.703125 35.667969-15.085938 28.230469-44.621094 45.730469-76.628906 45.398438-22.34375.140624-43.886719-8.324219-60.160156-23.636719-5.355469-11.277344-8.125-23.613281-8.105469-36.097657 0-22.632812 8.988281-44.335937 24.992187-60.339843 16.003906-16.003907 37.707032-24.992188 60.339844-24.992188 11.882812-.050781 23.640625 2.449219 34.476562 7.335938 7.128907 3.132812 13.792969 7.242187 19.796876 12.203125 9.105468 13.039062 13.992187 28.558594 13.992187 44.460937zm0 0" fill="#955ba5"/><path d="m460.800781 170.667969c.042969 22.347656-8.726562 43.808593-24.40625 59.730469-16.042969-16.375-38.003906-25.601563-60.929687-25.597657-11.882813-.050781-23.640625 2.449219-34.472656 7.335938.242187-2.4375.355468-4.886719.339843-7.335938.003907-20.339843-7.261719-40.011719-20.480469-55.46875-6.054687-7.039062-13.199218-13.058593-21.160156-17.832031 8.996094-17.394531 23.699219-31.164062 41.640625-39 10.753907-4.742188 22.382813-7.183594 34.132813-7.167969 47.128906 0 85.335937 38.207031 85.335937 85.335938zm0 0" fill="#894b9d"/><path d="m307.199219 149.332031c.007812 12.417969 2.992187 24.648438 8.703125 35.671875 15.089844 28.230469 44.625 45.726563 76.632812 45.394532 22.34375.140624 43.886719-8.320313 60.160156-23.636719 5.355469-11.277344 8.125-23.609375 8.105469-36.09375 0-47.128907-38.207031-85.335938-85.335937-85.335938-11.882813-.050781-23.640625 2.453125-34.472656 7.339844-7.132813 3.132813-13.792969 7.238281-19.796876 12.203125-9.109374 13.035156-13.992187 28.554688-13.996093 44.457031zm0 0" fill="#955ba5"/><path d="m256 512c-3.910156-.003906-7.320312-2.667969-8.269531-6.460938l-42.664063-170.664062c-1.148437-4.574219 1.628906-9.207031 6.203125-10.351562 4.5625-1.144532.929688-30.429688 2.074219-25.855469l34.132812 135.484375v-144.019532c0-4.710937 3.820313-8.53125 8.53125-8.53125 4.714844 0 8.535157 3.820313 8.535157 8.53125v213.332032c0 4.3125-3.214844 7.949218-7.492188 8.476562-.347656.039063-.699219.058594-1.050781.058594zm0 0" fill="#95a5a5"/><path d="m341.332031 204.800781c.015625 2.449219-.097656 4.898438-.339843 7.335938-1.707032.769531-3.414063 1.625-5.121094 2.476562-25.777344 13.488281-42.894532 39.195313-45.394532 68.179688-21.945312 9.785156-47.007812 9.785156-68.953124 0-2.5-28.984375-19.617188-54.691407-45.394532-68.179688-1.707031-.851562-3.414062-1.707031-5.121094-2.476562-.242187-2.4375-.355468-4.886719-.339843-7.335938-.003907-2.9375.167969-5.871093.511719-8.789062 2.980468-28.972657 20.542968-54.417969 46.570312-67.484375 26.03125-13.066406 56.925781-11.945313 81.941406 2.972656 7.960938 4.773438 15.105469 10.792969 21.160156 17.832031 11.230469 13.121094 18.222657 29.335938 20.054688 46.507813.257812 2.902344.425781 5.972656.425781 8.960937zm0 0" fill="#f29c1f"/><path d="m340.90625 195.839844c-.746094 6.472656-2.445312 12.796875-5.035156 18.773437-7.4375 17.46875-20.917969 31.675781-37.972656 40.019531-26.371094 13.199219-57.421876 13.199219-83.796876 0-17.054687-8.34375-30.53125-22.550781-37.972656-40.019531-2.550781-5.925781-4.21875-12.191406-4.949218-18.601562 2.980468-28.972657 20.542968-54.417969 46.570312-67.484375 26.03125-13.066406 56.925781-11.945313 81.941406 2.972656 7.960938 4.773438 15.105469 10.792969 21.160156 17.832031 11.230469 13.121094 18.222657 29.335938 20.054688 46.507813zm0 0" fill="#f0c419"/><path d="m341.332031 92.5c-17.941406 7.835938-32.644531 21.605469-41.640625 39-28.292968-16.859375-63.765625-15.929688-91.136718 2.386719-6.746094-19.171875-20.121094-35.304688-37.71875-45.480469 2.832031-45.789062 41.359374-81.144531 87.222656-80.042969 45.863281 1.101563 82.644531 38.265625 83.273437 84.136719zm0 0" fill="#ff5364"/><path d="m256 512c-2.851562 0-5.515625-1.425781-7.101562-3.796875l-68.265626-102.402344c-2.613281-3.917969-1.554687-9.21875 2.363282-11.832031 3.921875-2.617188 9.222656-1.558594 11.835937 2.363281l61.167969 91.773438 61.167969-91.75c1.691406-2.535157 4.609375-3.976563 7.648437-3.78125 3.042969.199219 5.75 2.003906 7.101563 4.738281 1.351562 2.734375 1.140625 5.980469-.550781 8.515625l-68.265626 102.398437c-1.589843 2.363282-4.253906 3.78125-7.101562 3.773438zm0 0" fill="#95a5a5"/><path d="m153.601562 349.867188-7.367187 64.546874 58.566406-21.878906zm0 0" fill="#df4d60"/><path d="m256 512c-.703125.003906-1.402344-.082031-2.082031-.257812-4.570313-1.144532-7.347657-5.777344-6.203125-10.347657l50.953125-202.726562c1.140625-4.574219-2.484375 24.746093 2.074219 25.855469 4.570312 1.144531 7.347656 5.777343 6.203124 10.351562l-42.667968 170.664062c-.949219 3.796876-4.363282 6.460938-8.277344 6.460938zm0 0" fill="#95a5a5"/><path d="m221.867188 290.132812c.027343 39.996094-27.742188 74.640626-66.789063 83.308594-39.046875 8.671875-78.871094-10.960937-95.769531-47.210937-5.359375-11.277344-8.128906-23.613281-8.109375-36.097657 0-47.128906 38.207031-85.332031 85.335937-85.332031 11.882813-.050781 23.640625 2.449219 34.472656 7.335938 28.476563 12.566406 47.839844 39.648437 50.515626 70.65625.246093 2.441406.359374 4.890625.34375 7.339843zm0 0" fill="#df4d60"/><path d="m204.800781 268.800781c-.007812 12.414063-2.992187 24.644531-8.703125 35.667969-15.089844 28.230469-44.625 45.730469-76.632812 45.398438-22.34375.140624-43.886719-8.324219-60.15625-23.636719-5.359375-11.277344-8.128906-23.613281-8.109375-36.097657 0-47.128906 38.207031-85.332031 85.335937-85.332031 11.882813-.050781 23.640625 2.449219 34.472656 7.335938 7.132813 3.132812 13.792969 7.242187 19.796876 12.203125 9.109374 13.039062 13.992187 28.558594 13.996093 44.460937zm0 0" fill="#ff5364"/><path d="m358.398438 349.867188 7.304687 64.546874-58.503906-21.878906zm0 0" fill="#df4d60"/><path d="m460.628906 295.9375c-2.910156 46.070312-41.929687 81.476562-88.066406 79.90625s-82.660156-39.546875-82.429688-85.710938c-.015624-2.449218.097657-4.898437.34375-7.339843.882813-10.667969 3.808594-21.066407 8.617188-30.632813-.257812 2.644532-.425781 5.375-.425781 8.105469 1.203125 45.9375 39.390625 82.21875 85.332031 81.066406 32.007812.332031 61.542969-17.164062 76.628906-45.394531zm0 0" fill="#df4d60"/><path d="m460.800781 290.132812c0 1.964844-.085937 3.925782-.171875 5.804688-15.085937 28.230469-44.621094 45.726562-76.628906 45.394531-45.941406 1.152344-84.128906-35.128906-85.332031-81.066406 0-2.730469.167969-5.460937.425781-8.105469 8.871094-17.820312 23.691406-31.976562 41.898438-40.023437 10.832031-4.886719 22.589843-7.386719 34.472656-7.335938 47.128906 0 85.335937 38.203125 85.335937 85.332031zm0 0" fill="#ff5364"/><g fill="#2fa8cc"><path d="m17.066406 42.667969h-8.53125c-4.714844 0-8.535156-3.820313-8.535156-8.535157 0-4.710937 3.820312-8.53125 8.535156-8.53125h8.53125c4.714844 0 8.535156 3.820313 8.535156 8.53125 0 4.714844-3.820312 8.535157-8.535156 8.535157zm0 0"/><path d="m59.734375 42.667969h-8.535156c-4.710938 0-8.53125-3.820313-8.53125-8.535157 0-4.710937 3.820312-8.53125 8.53125-8.53125h8.535156c4.710937 0 8.53125 3.820313 8.53125 8.53125 0 4.714844-3.820313 8.535157-8.53125 8.535157zm0 0"/><path d="m34.132812 68.265625c-4.710937 0-8.53125-3.820313-8.53125-8.53125v-8.535156c0-4.710938 3.820313-8.53125 8.53125-8.53125 4.714844 0 8.535157 3.820312 8.535157 8.53125v8.535156c0 4.710937-3.820313 8.53125-8.535157 8.53125zm0 0"/><path d="m34.132812 25.601562c-4.710937 0-8.53125-3.820312-8.53125-8.535156v-8.53125c0-4.714844 3.820313-8.535156 8.53125-8.535156 4.714844 0 8.535157 3.820312 8.535157 8.535156v8.53125c0 4.714844-3.820313 8.535156-8.535157 8.535156zm0 0"/><path d="m42.667969 460.800781h-8.535157c-4.710937 0-8.53125-3.820312-8.53125-8.535156 0-4.710937 3.820313-8.53125 8.53125-8.53125h8.535157c4.710937 0 8.53125 3.820313 8.53125 8.53125 0 4.714844-3.820313 8.535156-8.53125 8.535156zm0 0"/><path d="m85.332031 460.800781h-8.53125c-4.714843 0-8.535156-3.820312-8.535156-8.535156 0-4.710937 3.820313-8.53125 8.535156-8.53125h8.53125c4.714844 0 8.535157 3.820313 8.535157 8.53125 0 4.714844-3.820313 8.535156-8.535157 8.535156zm0 0"/><path d="m59.734375 486.398438c-4.714844 0-8.535156-3.820313-8.535156-8.53125v-8.535157c0-4.710937 3.820312-8.53125 8.535156-8.53125 4.710937 0 8.53125 3.820313 8.53125 8.53125v8.535157c0 4.710937-3.820313 8.53125-8.53125 8.53125zm0 0"/><path d="m59.734375 443.734375c-4.714844 0-8.535156-3.820313-8.535156-8.535156v-8.53125c0-4.714844 3.820312-8.535157 8.535156-8.535157 4.710937 0 8.53125 3.820313 8.53125 8.535157v8.53125c0 4.714843-3.820313 8.535156-8.53125 8.535156zm0 0"/><path d="m460.800781 85.332031h-8.535156c-4.710937 0-8.53125-3.820312-8.53125-8.53125 0-4.714843 3.820313-8.535156 8.53125-8.535156h8.535156c4.710938 0 8.53125 3.820313 8.53125 8.535156 0 4.710938-3.820312 8.53125-8.53125 8.53125zm0 0"/><path d="m503.464844 85.332031h-8.53125c-4.714844 0-8.535156-3.820312-8.535156-8.53125 0-4.714843 3.820312-8.535156 8.535156-8.535156h8.53125c4.714844 0 8.535156 3.820313 8.535156 8.535156 0 4.710938-3.820312 8.53125-8.535156 8.53125zm0 0"/><path d="m477.867188 110.933594c-4.714844 0-8.535157-3.820313-8.535157-8.535156v-8.53125c0-4.714844 3.820313-8.535157 8.535157-8.535157 4.710937 0 8.53125 3.820313 8.53125 8.535157v8.53125c0 4.714843-3.820313 8.535156-8.53125 8.535156zm0 0"/><path d="m477.867188 68.265625c-4.714844 0-8.535157-3.820313-8.535157-8.53125v-8.535156c0-4.710938 3.820313-8.53125 8.535157-8.53125 4.710937 0 8.53125 3.820312 8.53125 8.53125v8.535156c0 4.710937-3.820313 8.53125-8.53125 8.53125zm0 0"/></g><path d="m278.457031 35.023438c-5.59375-15.519532-26.300781-22.269532-46.25-15.074219-19.953125 7.191406-31.589843 25.597656-25.996093 41.117187 5.59375 15.515625 26.300781 22.265625 46.25 15.074219 19.953124-7.191406 31.589843-25.601563 25.996093-41.117187zm0 0" fill="#fb7b76"/><path d="m391.125 237.601562c-5.59375-15.519531-26.300781-22.269531-46.253906-15.078124-19.949219 7.195312-31.589844 25.601562-25.996094 41.121093 5.59375 15.515625 26.304688 22.265625 46.253906 15.074219 19.953125-7.191406 31.589844-25.601562 25.996094-41.117188zm0 0" fill="#fb7b76"/><path d="m143.664062 239.816406c-5.59375-15.515625-26.300781-22.265625-46.253906-15.074218-19.949218 7.191406-31.589844 25.601562-25.996094 41.121093 5.59375 15.515625 26.300782 22.265625 46.253907 15.074219 19.949219-7.191406 31.589843-25.601562 25.996093-41.121094zm0 0" fill="#fb7b76"/><path d="m143.664062 109.601562c-5.59375-15.515624-26.300781-22.265624-46.253906-15.074218-19.949218 7.191406-31.589844 25.601562-25.996094 41.117187 5.59375 15.519531 26.304688 22.269531 46.253907 15.074219 19.953125-7.191406 31.589843-25.597656 25.996093-41.117188zm0 0" fill="#b49aca"/><path d="m271.664062 152.269531c-5.59375-15.519531-26.304687-22.269531-46.253906-15.074219-19.953125 7.191407-31.589844 25.597657-25.996094 41.117188 5.59375 15.515625 26.300782 22.265625 46.253907 15.074219 19.949219-7.191407 31.589843-25.601563 25.996093-41.117188zm0 0" fill="#f3d55b"/><path d="m399.660156 111.820312c-5.59375-15.515624-26.300781-22.265624-46.253906-15.074218-19.949219 7.191406-31.589844 25.601562-25.996094 41.121094 5.59375 15.515624 26.304688 22.265624 46.253906 15.074218 19.953126-7.191406 31.589844-25.601562 25.996094-41.121094zm0 0" fill="#b49aca"/></svg>