<svg height="512pt" viewBox="-4 0 512 512.01361" width="512pt" xmlns="http://www.w3.org/2000/svg"><g fill="#95a5a5"><path d="m390.523438 425.234375c-4.792969 0-8.675782-3.886719-8.675782-8.679687v-60.746094c0-4.792969 3.882813-8.675782 8.675782-8.675782 4.792968 0 8.679687 3.882813 8.679687 8.675782v60.746094c0 4.792968-3.886719 8.679687-8.679687 8.679687zm0 0"/><path d="m442.59375 433.910156c-4.792969 0-8.679688-3.882812-8.679688-8.675781v-69.425781c0-4.792969 3.886719-8.675782 8.679688-8.675782 4.789062 0 8.675781 3.882813 8.675781 8.675782v69.425781c0 4.792969-3.886719 8.675781-8.675781 8.675781zm0 0"/><path d="m52.082031 477.300781c-4.792969 0-8.675781-3.882812-8.675781-8.675781v-34.714844c0-4.789062 3.882812-8.675781 8.675781-8.675781s8.679688 3.886719 8.679688 8.675781v34.714844c0 4.792969-3.886719 8.675781-8.679688 8.675781zm0 0"/><path d="m104.152344 477.300781c-4.792969 0-8.679688-3.882812-8.679688-8.675781v-34.714844c0-4.789062 3.886719-8.675781 8.679688-8.675781 4.792968 0 8.675781 3.886719 8.675781 8.675781v34.714844c0 4.792969-3.882813 8.675781-8.675781 8.675781zm0 0"/></g><path d="m400.242188 321.097656h-27.074219c-8.910157-5.929687-16.527344-13.605468-22.390625-22.5625l-3.46875-44.863281c10.710937 14.90625 26.46875 25.421875 44.34375 29.589844 1.046875 12.957031 3.941406 25.699219 8.589844 37.835937zm0 0" fill="#f29c1f"/><path d="m494.660156 258.355469c-.398437 25.390625-13.414062 48.917969-34.710937 62.742187h-27.078125c4.652344-12.136718 7.546875-24.878906 8.59375-37.835937 23.210937-4.769531 42.402344-21.019531 50.9375-43.128907 1.503906 5.957032 2.261718 12.078126 2.257812 18.222657zm0 0" fill="#f29c1f"/><path d="m492.402344 240.132812c-8.535156 22.109376-27.726563 38.359376-50.9375 43.128907-16.34375 4.167969-33.46875 4.167969-49.8125 0-17.875-4.167969-33.632813-14.683594-44.34375-29.589844l-.175782-1.996094 65.695313-69.339843c1.214844-.085938 2.515625-.085938 3.730469-.085938.433594-.011719.871094.015625 1.300781.085938 35.039063.253906 65.570313 23.925781 74.542969 57.796874zm0 0" fill="#f0c419"/><path d="m216.964844 373.167969c-3.871094-.003907-7.273438-2.570313-8.339844-6.292969l-17.355469-60.746094c-.957031-3.011718-.203125-6.308594 1.972657-8.601562 2.175781-2.292969 5.425781-3.222656 8.484374-2.425782 3.058594.796876 5.441407 3.191407 6.222657 6.253907l17.355469 60.746093c1.316406 4.605469-1.347657 9.40625-5.953126 10.726563-.777343.226563-1.578124.339844-2.386718.339844zm0 0" fill="#95a5a5"/><path d="m321.101562 373.167969c-.808593 0-1.613281-.113281-2.386718-.339844-4.605469-1.320313-7.269532-6.121094-5.953125-10.726563l17.355469-60.746093c.78125-3.0625 3.164062-5.457031 6.222656-6.253907 3.058594-.796874 6.308594.132813 8.484375 2.425782 2.175781 2.292968 2.929687 5.589844 1.972656 8.601562l-17.355469 60.746094c-1.066406 3.722656-4.46875 6.289062-8.339844 6.292969zm0 0" fill="#95a5a5"/><path d="m269.03125 373.167969c-4.792969 0-8.675781-3.886719-8.675781-8.679688v-60.746093c0-4.792969 3.882812-8.675782 8.675781-8.675782s8.679688 3.882813 8.679688 8.675782v60.746093c0 4.792969-3.886719 8.679688-8.679688 8.679688zm0 0" fill="#95a5a5"/><path d="m321.101562 355.808594h-104.136718c-4.792969 0-8.679688 3.886718-8.679688 8.679687v43.390625c0 19.171875 15.542969 34.710938 34.714844 34.710938h52.066406c19.171875 0 34.710938-15.539063 34.710938-34.710938v-43.390625c0-4.792969-3.882813-8.679687-8.675782-8.679687zm0 0" fill="#b19046"/><path d="m306.226562 355.808594h-74.386718c-3.410156 0-6.195313 3.90625-6.195313 8.679687v43.390625c0 19.175782 11.097657 34.710938 24.792969 34.710938h37.191406c13.695313 0 24.792969-15.535156 24.792969-34.710938v-43.390625c0-4.773437-2.785156-8.679687-6.195313-8.679687zm0 0" fill="#e4c05c"/><path d="m251.675781 399.199219c0 4.792969-3.882812 8.679687-8.675781 8.679687h-34.714844v-17.355468h34.714844c4.792969 0 8.675781 3.882812 8.675781 8.675781zm0 0" fill="#b19046"/><path d="m329.777344 390.523438v17.355468h-52.066406c-4.792969 0-8.679688-3.886718-8.679688-8.679687s3.886719-8.675781 8.679688-8.675781zm0 0" fill="#b19046"/><path d="m416.558594 147.539062c.042968 11.703126-1.207032 23.371094-3.730469 34.796876-.015625.296874-.074219.589843-.175781.871093-3.753906 17.242188-10.636719 33.65625-20.304688 48.421875-9.648437 14.710938-22.054687 27.410156-36.535156 37.402344h-48.164062c11.105468-24.914062 17.914062-51.527344 20.132812-78.710938 42.003906-13.96875 73.9375-42.519531 84.785156-77.234374 2.660156 11.292968 4 22.851562 3.992188 34.453124zm0 0" fill="#c03a2b"/><path d="m230.414062 269.03125h-48.160156c-39.199218-27.871094-61.96875-73.410156-60.746094-121.492188 0-2.863281.085938-5.8125.257813-8.679687l5.902344-19.609375c12.582031 31.933594 43.042969 57.882812 82.613281 71.070312 2.222656 27.183594 9.03125 53.796876 20.132812 78.710938zm0 0" fill="#c03a2b"/><path d="m412.566406 113.085938c-10.847656 34.714843-42.78125 63.265624-84.785156 77.234374-38.1875 12.382813-79.308594 12.382813-117.5 0-39.570312-13.1875-70.03125-39.136718-82.613281-71.070312l13.886719-45.820312c30.285156-52.140626 89.257812-80.601563 148.921874-71.871094 59.667969 8.730468 108.011719 52.894531 122.089844 111.527344zm0 0" fill="#e64c3c"/><path d="m61.804688 399.199219h-27.078126c-21.296874-13.824219-34.3125-37.351563-34.710937-62.742188-.0039062-6.144531.753906-12.265625 2.257813-18.222656 8.53125 22.109375 27.726562 38.359375 50.9375 43.128906 1.046874 12.957031 3.941406 25.699219 8.59375 37.835938zm0 0" fill="#2980ba"/><path d="m156.21875 336.457031c-.398438 25.390625-13.414062 48.917969-34.710938 62.742188h-27.074218c4.648437-12.136719 7.542968-24.878907 8.589844-37.835938 23.210937-4.769531 42.40625-21.019531 50.9375-43.128906 1.503906 5.957031 2.261718 12.078125 2.257812 18.222656zm0 0" fill="#2980ba"/><path d="m153.960938 318.234375c-8.53125 22.109375-27.726563 38.359375-50.9375 43.128906-16.34375 4.167969-33.46875 4.167969-49.8125 0-23.210938-4.769531-42.40625-21.019531-50.9375-43.128906 8.972656-33.871094 39.503906-57.542969 74.542968-57.796875.863282-.113281 1.738282-.113281 2.601563 0 35.039062.253906 65.570312 23.925781 74.542969 57.796875zm0 0" fill="#2fa8cc"/><path d="m355.8125 269.03125v17.355469c.015625 4.558593-1.796875 8.9375-5.035156 12.148437-3.238282 3.324219-7.679688 5.199219-12.320313 5.207032h-138.847656c-9.574219-.027344-17.328125-7.78125-17.355469-17.355469v-17.355469zm0 0" fill="#802f34"/><path d="m327.78125 190.320312c-2.21875 27.183594-9.027344 53.796876-20.132812 78.710938h-77.234376c-11.101562-24.914062-17.910156-51.527344-20.132812-78.710938 38.191406 12.382813 79.3125 12.382813 117.5 0zm0 0" fill="#bdc3c7"/><path d="m329.777344 151.878906c.011718 12.839844-.652344 25.671875-1.996094 38.441406-38.1875 12.382813-79.308594 12.382813-117.5 0-1.339844-12.769531-2.007812-25.601562-1.996094-38.441406 0-83.828125 27.164063-151.8671872 60.746094-151.8671872 33.585938 0 60.746094 68.0390622 60.746094 151.8671872zm0 0" fill="#ecf0f1"/><path d="m34.726562 399.199219h86.78125v17.355469c0 9.585937-7.769531 17.355468-17.355468 17.355468h-52.070313c-9.585937 0-17.355469-7.769531-17.355469-17.355468zm0 0" fill="#2980ba"/><path d="m103.023438 361.363281c-1.046876 12.957031-3.941407 25.699219-8.589844 37.835938h-32.628906c-4.652344-12.136719-7.546876-24.878907-8.59375-37.835938 16.34375 4.167969 33.46875 4.167969 49.8125 0zm0 0" fill="#bdc3c7"/><path d="m104.152344 338.453125c0 7.984375-.433594 15.707031-1.128906 22.910156-16.34375 4.167969-33.46875 4.167969-49.8125 0-.695313-7.203125-1.128907-14.925781-1.128907-22.910156 0-41.738281 10.9375-75.929687 24.734375-78.015625.863282-.113281 1.738282-.113281 2.601563 0 13.800781 2.085938 24.734375 36.277344 24.734375 78.015625zm0 0" fill="#ecf0f1"/><path d="m373.167969 321.097656h86.78125v17.355469c0 9.585937-7.773438 17.355469-17.355469 17.355469h-52.070312c-9.585938 0-17.355469-7.769532-17.355469-17.355469zm0 0" fill="#e57e25"/><path d="m441.464844 283.261719c-1.046875 12.957031-3.941406 25.699219-8.59375 37.835937h-32.628906c-4.648438-12.136718-7.542969-24.878906-8.589844-37.835937 16.34375 4.167969 33.46875 4.167969 49.8125 0zm0 0" fill="#bdc3c7"/><path d="m442.59375 260.351562c0 7.984376-.4375 15.707032-1.128906 22.910157-16.34375 4.167969-33.46875 4.167969-49.8125 0-.695313-7.203125-1.128906-14.925781-1.128906-22.910157-.039063-9.605468.570312-19.199218 1.824218-28.722656l20.304688-48.421875c1.214844-.601562 2.550781-.929687 3.90625-.957031.433594-.011719.871094.015625 1.300781.085938 13.796875 2.085937 24.734375 36.277343 24.734375 78.015624zm0 0" fill="#ecf0f1"/><path d="m122.046875 67.066406h-14.640625c.527344-22.105468-16.945312-40.460937-39.050781-41.019531-22.105469.558594-39.582031 18.914063-39.050781 41.019531.042968 3.519532.519531 7.015625 1.421874 10.414063-.476562 0-.9375-.144531-1.421874-.144531-16.578126.414062-29.6875 14.183593-29.289063 30.761718-.398437 16.578125 12.710937 30.347656 29.289063 30.761719h92.742187c19.339844-.484375 34.632813-16.546875 34.171875-35.890625.464844-19.347656-14.828125-35.414062-34.171875-35.902344zm0 0" fill="#bdc3c7"/><path d="m469.164062 431.542969h-14.640624c.679687-14.390625-6.613282-27.988281-18.972657-35.386719-12.363281-7.398438-27.792969-7.398438-40.152343 0-12.363282 7.398438-19.65625 20.996094-18.976563 35.386719.042969 3.515625.523437 7.015625 1.421875 10.414062-.476562 0-.933594-.148437-1.421875-.148437-16.390625.828125-29.253906 14.355468-29.253906 30.769531 0 16.410156 12.863281 29.941406 29.253906 30.765625h92.742187c19.105469-.984375 34.09375-16.765625 34.09375-35.894531 0-19.132813-14.988281-34.914063-34.09375-35.898438zm0 0" fill="#bdc3c7"/><path d="m86.796875 512.011719h-17.359375c-14.375 0-26.03125-11.652344-26.03125-26.03125v-17.355469c0-4.792969 3.882812-8.679688 8.675781-8.679688h52.070313c4.792968 0 8.675781 3.886719 8.675781 8.679688v17.355469c0 14.378906-11.65625 26.03125-26.03125 26.03125zm0 0" fill="#b19046"/><path d="m82.457031 512.011719h-8.679687c-7.175782 0-13.015625-11.679688-13.015625-26.03125v-17.355469c0-4.792969 1.945312-8.679688 4.339843-8.679688h26.03125c2.398438 0 4.339844 3.886719 4.339844 8.679688v17.355469c0 14.351562-5.839844 26.03125-13.015625 26.03125zm0 0" fill="#e4c05c"/></svg>