<svg id="Capa_1" enable-background="new 0 0 512 512" height="512" viewBox="0 0 512 512" width="512" xmlns="http://www.w3.org/2000/svg"><path d="m237.999 153c-1.454 0-2.918-.211-4.349-.645l-68.784-20.839c-2.822-.855-5.33-2.523-7.209-4.796-28.889-34.929-29.77-82.668-29.793-84.684-.047-4.038 1.537-7.924 4.393-10.78 2.854-2.855 6.712-4.431 10.779-4.393 2.295.026 56.592 1.053 91.75 36.213.869.868 1.586 1.684 2.161 2.338.212.241.423.483.642.721 1.909 2.075 3.194 4.646 3.709 7.419l11.45 61.708c.955 5.148-.843 10.421-4.744 13.914-2.789 2.497-6.363 3.824-10.005 3.824z" fill="#ffc700"/><path d="m274.001 153c-3.642 0-7.216-1.328-10.005-3.823-3.901-3.492-5.699-8.766-4.744-13.914l11.451-61.708c.514-2.77 1.797-5.338 3.702-7.412.219-.237.429-.479.641-.719.577-.657 1.295-1.474 2.168-2.347 35.158-35.16 89.456-36.186 91.751-36.212.058 0 .115-.001.173-.001 3.977 0 7.792 1.579 10.607 4.394 2.855 2.856 4.438 6.743 4.392 10.781-.023 2.015-.905 49.754-29.794 84.683-1.879 2.273-4.387 3.941-7.209 4.796l-68.784 20.839c-1.43.432-2.895.643-4.349.643z" fill="#faa000"/><path d="m256 170c-4.092 0-8.006-1.672-10.836-4.627-1.394-1.458-34.164-36.199-34.164-80.373s32.77-78.915 34.164-80.373c2.83-2.955 6.744-4.627 10.836-4.627s8.006 1.672 10.836 4.627c1.394 1.458 34.164 36.199 34.164 80.373s-32.77 78.915-34.164 80.373c-2.83 2.955-6.744 4.627-10.836 4.627z" fill="#ffe951"/><path d="m266.836 165.373c1.394-1.458 34.164-36.199 34.164-80.373s-32.77-78.915-34.164-80.373c-2.83-2.955-6.744-4.627-10.836-4.627v170c4.092 0 8.006-1.672 10.836-4.627z" fill="#ffc700"/><path d="m15 512c-8.284 0-15-6.716-15-15v-362c0-8.284 6.716-15 15-15s15 6.716 15 15v362c0 8.284-6.716 15-15 15z" fill="#555582"/><path d="m504.128 61.802c-4.85-2.62-10.744-2.368-15.354.654l-5.835 3.827c-.001 0-.001 0-.001 0-33.643 22.061-72.53 33.718-112.48 33.717-.141 0-.279 0-.424 0-40.771 0-80.825 12.796-114.034 36.241-33.211-23.447-73.26-36.241-114.034-36.241-.142 0-.28 0-.424 0-39.947 0-78.84-11.657-112.481-33.717l-5.835-3.827c-4.609-3.021-10.505-3.272-15.354-.654-4.85 2.619-7.872 7.687-7.872 13.198v82c0 90.981 74.019 165 165 165 34.969 0 68.632-15.825 91-42.56 22.368 26.732 56.033 42.56 91 42.56 90.981 0 165-74.019 165-165v-82c0-5.511-3.022-10.579-7.872-13.198zm-370.806 173.387c-30.032-14.004-41.7-52.546-41.7-52.546s37.025-15.836 67.057-1.832 41.7 52.546 41.7 52.546-37.025 15.837-67.057 1.832zm245.356 0c-30.032 14.004-67.057-1.832-67.057-1.832s11.667-38.542 41.7-52.546c30.032-14.004 67.057 1.832 67.057 1.832s-11.667 38.542-41.7 52.546z" fill="#ff5a91"/><path d="m504.128 61.802c-4.85-2.62-10.744-2.368-15.354.654l-5.835 3.827c-.001 0-.001 0-.001 0-33.643 22.061-72.53 33.718-112.48 33.717-.141 0-.279 0-.424 0-40.771 0-80.825 12.796-114.034 36.241v143.199c22.368 26.732 56.033 42.56 91 42.56 90.981 0 165-74.019 165-165v-82c0-5.511-3.022-10.579-7.872-13.198zm-125.45 173.387c-30.032 14.004-67.057-1.832-67.057-1.832s11.667-38.542 41.7-52.546c30.032-14.004 67.057 1.832 67.057 1.832s-11.667 38.542-41.7 52.546z" fill="#f32464"/></svg>