<svg height="512pt" viewBox="-9 0 511 512" width="512pt" xmlns="http://www.w3.org/2000/svg"><path d="m441.550781 407.863281c-4.792969 0-8.679687-3.882812-8.679687-8.675781s3.886718-8.679688 8.679687-8.679688c11.351563 1.125 21.804688-6.273437 24.523438-17.355468h-24.523438c-4.792969 0-8.679687-3.886719-8.679687-8.679688 0-4.789062 3.886718-8.675781 8.679687-8.675781h24.488281c5.496094-.007813 10.667969 2.589844 13.949219 7 3.277344 4.410156 4.273438 10.109375 2.6875 15.371094-5.015625 18.34375-22.136719 30.707031-41.125 29.695312zm0 0" fill="#cc66a1"/><path d="m42.363281 407.863281c-18.992187 1.011719-36.117187-11.359375-41.125-29.703125-1.585937-5.261718-.585937-10.960937 2.691407-15.367187 3.28125-4.40625 8.449218-7.003907 13.945312-6.996094h24.488281c4.792969 0 8.675781 3.886719 8.675781 8.675781 0 4.792969-3.882812 8.679688-8.675781 8.679688h-24.488281c2.695312 11.082031 13.140625 18.484375 24.488281 17.355468 4.792969 0 8.675781 3.886719 8.675781 8.679688s-3.882812 8.675781-8.675781 8.675781zm0 0" fill="#f0c419"/><path d="m241.957031 425.21875c-4.792969 0-8.679687-3.882812-8.679687-8.675781v-156.203125c0-4.792969 3.886718-8.679688 8.679687-8.679688s8.675781 3.886719 8.675781 8.679688v156.203125c0 4.792969-3.882812 8.675781-8.675781 8.675781zm0 0" fill="#7f8c8d"/><path d="m249.417969 59.617188h-14.925781c-65.777344 130.691406-218.164063 148.652343-218.164063 148.652343h451.253906s-152.382812-17.960937-218.164062-148.652343zm0 0" fill="#e64c3c"/><path d="m467.582031 208.269531h-225.625v-148.652343h7.460938c65.78125 130.691406 218.164062 148.652343 218.164062 148.652343zm0 0" fill="#c03a2b"/><path d="m241.957031 59.617188v148.652343h-225.628906s152.386719-17.960937 218.164063-148.652343zm0 0" fill="#e64c3c"/><path d="m276.667969 34.710938c0 19.171874-15.539063 34.710937-34.710938 34.710937s-34.710937-15.539063-34.710937-34.710937c0-19.167969 15.539062-34.710938 34.710937-34.710938s34.710938 15.542969 34.710938 34.710938zm0 0" fill="#f0c419"/><path d="m16.328125 208.269531h43.390625v26.035157c0 14.378906-11.65625 26.035156-26.035156 26.035156-14.375 0-26.03125-11.65625-26.03125-26.035156v-17.355469c0-4.792969 3.882812-8.679688 8.675781-8.679688zm0 0" fill="#c03a2b"/><path d="m59.71875 208.269531h52.066406v26.035157c0 14.378906-11.652344 26.035156-26.03125 26.035156s-26.035156-11.65625-26.035156-26.035156zm0 0" fill="#ecf0f1"/><path d="m111.785156 208.269531h52.070313v26.035157c0 14.378906-11.65625 26.035156-26.035157 26.035156-14.378906 0-26.035156-11.65625-26.035156-26.035156zm0 0" fill="#c03a2b"/><path d="m163.855469 208.269531h52.066406v26.035157c0 14.378906-11.65625 26.035156-26.035156 26.035156-14.375 0-26.03125-11.65625-26.03125-26.035156zm0 0" fill="#ecf0f1"/><path d="m215.921875 208.269531h52.066406v26.035157c0 14.378906-11.652343 26.035156-26.03125 26.035156-14.378906 0-26.035156-11.65625-26.035156-26.035156zm0 0" fill="#c03a2b"/><path d="m267.988281 208.269531h52.070313v26.035157c0 14.378906-11.65625 26.035156-26.035156 26.035156-14.378907 0-26.035157-11.65625-26.035157-26.035156zm0 0" fill="#ecf0f1"/><path d="m320.058594 208.269531h52.066406v26.035157c0 14.378906-11.65625 26.035156-26.03125 26.035156-14.378906 0-26.035156-11.65625-26.035156-26.035156zm0 0" fill="#e64c3c"/><path d="m372.125 208.269531h52.070312v26.035157c0 14.378906-11.65625 26.035156-26.035156 26.035156s-26.035156-11.65625-26.035156-26.035156zm0 0" fill="#ecf0f1"/><path d="m424.195312 208.269531h43.386719c4.792969 0 8.679688 3.886719 8.679688 8.679688v17.355469c0 14.378906-11.65625 26.035156-26.035157 26.035156-14.378906 0-26.03125-11.65625-26.03125-26.035156zm0 0" fill="#e64c3c"/><path d="m224.601562 416.542969h34.710938c9.585938 0 17.355469 7.769531 17.355469 17.355469v26.035156h-69.421875v-26.035156c0-9.585938 7.769531-17.355469 17.355468-17.355469zm0 0" fill="#7f8c8d"/><path d="m241.957031 416.542969c9.585938 0 17.355469 7.769531 17.355469 17.355469v26.035156h-34.710938v-26.035156c0-9.585938 7.769532-17.355469 17.355469-17.355469zm0 0" fill="#95a5a5"/><path d="m424.195312 459.933594v26.03125c0 14.378906-11.65625 26.035156-26.035156 26.035156h-312.40625c-14.378906 0-26.035156-11.65625-26.035156-26.035156v-26.03125zm0 0" fill="#c03a2b"/><path d="m424.195312 485.964844c0 14.378906-11.65625 26.035156-26.035156 26.035156h-312.40625c-14.378906 0-26.035156-11.65625-26.035156-26.035156zm0 0" fill="#e64c3c"/><path d="m85.753906 425.21875h52.066406c9.585938 0 17.355469 7.773438 17.355469 17.359375v17.355469h-86.777343v-17.355469c0-9.585937 7.769531-17.359375 17.355468-17.359375zm0 0" fill="#d25627"/><path d="m103.109375 425.21875h17.355469c9.585937 0 17.355468 7.773438 17.355468 17.359375v17.355469h-52.066406v-17.355469c0-9.585937 7.769532-17.359375 17.355469-17.359375zm0 0" fill="#e57e25"/><path d="m42.363281 338.441406h138.847657v52.066406c0 19.171876-15.542969 34.710938-34.710938 34.710938h-69.425781c-19.171875 0-34.710938-15.539062-34.710938-34.710938zm0 0" fill="#e57e25"/><path d="m59.71875 338.441406h104.136719v52.066406c0 19.171876-15.542969 34.710938-34.710938 34.710938h-34.714843c-19.167969 0-34.710938-15.539062-34.710938-34.710938zm0 0" fill="#f29c1f"/><path d="m189.886719 347.117188h-156.203125c-4.792969 0-8.675782-3.882813-8.675782-8.675782 0-4.792968 3.882813-8.679687 8.675782-8.679687h156.203125c4.792969 0 8.679687 3.886719 8.679687 8.679687 0 4.792969-3.886718 8.675782-8.679687 8.675782zm0 0" fill="#f0c419"/><path d="m415.515625 459.933594h-86.78125v-17.355469c0-9.585937 7.773437-17.359375 17.359375-17.359375h52.066406c9.585938 0 17.355469 7.773438 17.355469 17.359375zm0 0" fill="#894b9d"/><path d="m398.160156 459.933594h-52.066406v-17.355469c0-9.585937 7.769531-17.359375 17.355469-17.359375h17.355469c9.585937 0 17.355468 7.773438 17.355468 17.359375zm0 0" fill="#955ba5"/><path d="m406.835938 425.21875h-69.421876c-19.171874 0-34.710937-15.539062-34.710937-34.710938v-52.066406h138.847656v52.066406c0 19.171876-15.542969 34.710938-34.714843 34.710938zm0 0" fill="#894b9d"/><path d="m389.480469 425.21875h-34.710938c-19.171875 0-34.710937-15.539062-34.710937-34.710938v-52.066406h104.136718v52.066406c0 19.171876-15.542968 34.710938-34.714843 34.710938zm0 0" fill="#955ba5"/><path d="m450.226562 347.117188h-156.203124c-4.792969 0-8.675782-3.882813-8.675782-8.675782 0-4.792968 3.882813-8.679687 8.675782-8.679687h156.203124c4.792969 0 8.679688 3.886719 8.679688 8.679687 0 4.792969-3.886719 8.675782-8.679688 8.675782zm0 0" fill="#cc66a1"/><g fill="#f0c419"><path d="m441.550781 60.746094h-8.679687c-4.792969 0-8.675782-3.886719-8.675782-8.679688 0-4.792968 3.882813-8.675781 8.675782-8.675781h8.679687c4.792969 0 8.675781 3.882813 8.675781 8.675781 0 4.792969-3.882812 8.679688-8.675781 8.679688zm0 0"/><path d="m484.9375 60.746094h-8.675781c-4.792969 0-8.679688-3.886719-8.679688-8.679688 0-4.792968 3.886719-8.675781 8.679688-8.675781h8.675781c4.792969 0 8.679688 3.882813 8.679688 8.675781 0 4.792969-3.886719 8.679688-8.679688 8.679688zm0 0"/><path d="m458.90625 86.78125c-4.792969 0-8.679688-3.886719-8.679688-8.679688v-8.679687c0-4.789063 3.886719-8.675781 8.679688-8.675781s8.675781 3.886718 8.675781 8.675781v8.679687c0 4.792969-3.882812 8.679688-8.675781 8.679688zm0 0"/><path d="m458.90625 43.390625c-4.792969 0-8.679688-3.886719-8.679688-8.679687v-8.675782c0-4.792968 3.886719-8.679687 8.679688-8.679687s8.675781 3.886719 8.675781 8.679687v8.675782c0 4.792968-3.882812 8.679687-8.675781 8.679687zm0 0"/><path d="m42.363281 104.136719h-8.679687c-4.792969 0-8.675782-3.886719-8.675782-8.679688s3.882813-8.675781 8.675782-8.675781h8.679687c4.792969 0 8.675781 3.882812 8.675781 8.675781s-3.882812 8.679688-8.675781 8.679688zm0 0"/><path d="m85.753906 104.136719h-8.679687c-4.792969 0-8.675781-3.886719-8.675781-8.679688s3.882812-8.675781 8.675781-8.675781h8.679687c4.792969 0 8.675782 3.882812 8.675782 8.675781s-3.882813 8.679688-8.675782 8.679688zm0 0"/><path d="m59.71875 130.167969c-4.792969 0-8.679688-3.882813-8.679688-8.675781v-8.679688c0-4.792969 3.886719-8.675781 8.679688-8.675781s8.679688 3.882812 8.679688 8.675781v8.679688c0 4.792968-3.886719 8.675781-8.679688 8.675781zm0 0"/><path d="m59.71875 86.78125c-4.792969 0-8.679688-3.886719-8.679688-8.679688v-8.679687c0-4.789063 3.886719-8.675781 8.679688-8.675781s8.679688 3.886718 8.679688 8.675781v8.679687c0 4.792969-3.886719 8.679688-8.679688 8.679688zm0 0"/></g><path d="m250.632812 26.035156c0 9.585938-7.769531 17.355469-17.355468 17.355469-9.585938 0-17.355469-7.769531-17.355469-17.355469 0-9.585937 7.769531-17.355468 17.355469-17.355468 9.585937 0 17.355468 7.769531 17.355468 17.355468zm0 0" fill="#f3d55b"/><path d="m432.871094 468.609375h-381.832032c-4.789062 0-8.675781-3.882813-8.675781-8.675781 0-4.792969 3.886719-8.679688 8.675781-8.679688h381.832032c4.792968 0 8.679687 3.886719 8.679687 8.679688 0 4.792968-3.886719 8.675781-8.679687 8.675781zm0 0" fill="#fb7b76"/></svg>