<?xml version="1.0" encoding="iso-8859-1"?>
<!-- Generator: Adobe Illustrator 19.0.0, SVG Export Plug-In . SVG Version: 6.00 Build 0)  -->
<svg version="1.1" id="Capa_1" xmlns="http://www.w3.org/2000/svg" xmlns:xlink="http://www.w3.org/1999/xlink" x="0px" y="0px"
	 viewBox="0 0 512 512" style="enable-background:new 0 0 512 512;" xml:space="preserve">
<circle style="fill:#69CDFF;" cx="256" cy="267" r="245"/>
<path style="fill:#B7092B;" d="M100.12,78c-7.11,5.872-13.887,12.134-20.291,18.759l10.983,16.197c0.635,0.937,1.674,0.937,2.31,0
	l22.893-33.76c0.315-0.465,0.372-0.888,0.213-1.196H100.12z"/>
<path style="fill:#1A2B63;" d="M114.949,78c-0.16,0.308-0.103,0.73,0.213,1.196l22.892,33.76c0.636,0.937,1.674,0.937,2.31,0
	l22.893-33.76c0.315-0.465,0.373-0.888,0.213-1.196H114.949z"/>
<path style="fill:#00CCBD;" d="M162.189,78c-0.159,0.308-0.102,0.73,0.214,1.196l22.892,33.76c0.635,0.937,1.674,0.937,2.309,0
	l22.894-33.76c0.315-0.465,0.372-0.888,0.213-1.196H162.189z"/>
<path style="fill:#1A2B63;" d="M209.43,78c-0.159,0.308-0.103,0.73,0.213,1.196l13.967,20.596
	c6.364-6.968,12.418-14.243,18.145-21.791L209.43,78L209.43,78z"/>
<path style="fill:#00CCBD;" d="M270.247,78c6.179,8.143,12.74,15.961,19.657,23.426l15.075-22.23
	c0.315-0.465,0.372-0.888,0.213-1.196H270.247z"/>
<path style="fill:#1A2B63;" d="M303.912,78c-0.159,0.308-0.103,0.73,0.213,1.196l22.894,33.76c0.635,0.937,1.674,0.937,2.309,0
	l22.893-33.76c0.315-0.465,0.372-0.888,0.213-1.196H303.912z"/>
<path style="fill:#B7092B;" d="M351.153,78c-0.159,0.308-0.102,0.73,0.213,1.196l22.894,33.76c0.635,0.937,1.674,0.937,2.309,0
	l22.893-33.76c0.315-0.465,0.372-0.888,0.213-1.196H351.153z"/>
<path style="fill:#00CCBD;" d="M411.879,78h-13.484c-0.16,0.308-0.103,0.73,0.213,1.196l22.894,33.76
	c0.635,0.937,1.674,0.937,2.309,0l9.901-14.601C426.857,91.136,419.56,84.343,411.879,78z"/>
<g>
	<path style="fill:#FFBB88;" d="M267.076,72.539c-0.272,0.353-0.279,0.843-0.016,1.202c1.296,1.769,2.616,3.519,3.947,5.259h142.081
		c-4.15-3.472-8.419-6.805-12.795-10h-131.23C268.58,70.253,267.922,71.444,267.076,72.539z"/>
	<path style="fill:#FFBB88;" d="M244.939,73.742c0.264-0.359,0.257-0.85-0.016-1.202c-0.846-1.095-1.504-2.287-1.987-3.54h-131.23
		c-4.376,3.195-8.645,6.528-12.795,10h142.081C242.323,77.26,243.644,75.511,244.939,73.742z"/>
</g>
<path style="fill:#6FE27F;" d="M93.123,450c43.292,38.559,100.343,62,162.877,62s119.585-23.441,162.877-62H93.123z"/>
<path style="fill:#E52E49;" d="M322.828,20.073l15.538-13.782c0.585-0.519,0.789-1.346,0.512-2.077C338.6,3.483,337.899,3,337.117,3
	H262v34.146h75.117c0.782,0,1.482-0.483,1.761-1.214c0.277-0.731,0.073-1.558-0.512-2.077L322.828,20.073z"/>
<path style="fill:#C0272D;" d="M279.488,35.264V4.883c0-1.04,0.843-1.883,1.883-1.883H262v34.146h19.371
	C280.331,37.146,279.488,36.304,279.488,35.264z"/>
<path style="fill:#E52E49;" d="M353.566,241c-5.506,8.989-15.418,15-26.709,15H185.143c-11.291,0-21.203-6.011-26.709-15H46v152.247
	C55.546,409.091,66.838,423.76,79.604,437H182v-78c0-40.804,33.196-74,74-74s74,33.196,74,74v78h102.397
	c12.766-13.24,24.058-27.909,33.603-43.753V241H353.566z"/>
<path style="fill:#C0272D;" d="M46,241v152.247c5.999,9.957,12.689,19.448,20,28.414V241H46z"/>
<g>
	<path style="fill:#FFFFFF;" d="M99.746,437V241H71.862v187.595c2.517,2.866,5.113,5.659,7.758,8.405H99.746z"/>
	<rect x="128.59" y="241" style="fill:#FFFFFF;" width="27.885" height="196"/>
	<path style="fill:#FFFFFF;" d="M213.211,298.683V256h-27.885v81.041C190.197,321.398,200.142,307.981,213.211,298.683z"/>
	<path style="fill:#FFFFFF;" d="M256,285c4.768,0,9.425,0.47,13.943,1.336V256h-27.887v30.336C246.575,285.47,251.232,285,256,285z"
		/>
	<path style="fill:#FFFFFF;" d="M326.674,337.041V256h-27.885v42.683C311.858,307.981,321.803,321.398,326.674,337.041z"/>
	<rect x="355.52" y="241" style="fill:#FFFFFF;" width="27.885" height="196"/>
	<path style="fill:#FFFFFF;" d="M412.253,241v196h20.127c2.645-2.746,5.241-5.54,7.758-8.405V241H412.253z"/>
</g>
<path style="fill:#EBAA48;" d="M331,437v-78c0-41.355-33.645-75-75-75s-75,33.645-75,75v78H331z"/>
<path style="fill:#183889;" d="M316,437v-78c0-33.137-26.863-60-60-60s-60,26.863-60,60v78H316z"/>
<g>
	<path style="fill:#FE3745;" d="M211,364c-5.2,0-10.227-0.73-15-2.068V437h19.5v-73.202C214.014,363.917,212.518,364,211,364z"/>
	<path style="fill:#FE3745;" d="M296.5,363.798V437H316v-75.068c-4.773,1.337-9.8,2.068-15,2.068
		C299.482,364,297.986,363.917,296.5,363.798z"/>
</g>
<path style="fill:#B7092B;" d="M78.619,436c9.352,9.811,19.511,18.844,30.367,27h294.027c10.856-8.156,21.016-17.189,30.367-27
	H78.619z"/>
<path style="fill:#E52E49;" d="M152.962,223c0.521,0,0.953-0.399,0.996-0.917c1.339-16.086,15.036-28.688,31.185-28.688h141.715
	c16.148,0,29.846,12.601,31.185,28.688c0.043,0.518,0.476,0.917,0.996,0.917h94.257c-53.735-22.102-99.74-52.935-136.62-89h-121.35
	c-36.88,36.065-82.885,66.898-136.62,89H152.962z"/>
<path style="fill:#FFFFFF;" d="M152.962,223c0.521,0,0.953-0.399,0.996-0.917c1.339-16.086,15.036-28.688,31.185-28.688h141.715
	c16.148,0,29.846,12.601,31.185,28.688c0.043,0.518,0.476,0.917,0.996,0.917h40.108c-38.987-22.102-72.366-52.935-99.124-89h-88.045
	c-26.758,36.065-60.137,66.898-99.124,89H152.962z"/>
<path style="fill:#E52E49;" d="M321.234,193.395c-13.695-17.321-25.938-37.382-36.571-59.395h-57.326
	c-10.634,22.014-22.876,42.075-36.571,59.395H321.234z"/>
<path style="fill:#FFFFFF;" d="M277.72,193.395c-4.56-17.321-8.636-37.382-12.177-59.395h-19.086
	c-3.541,22.014-7.616,42.075-12.177,59.395H277.72z"/>
<g>
	<path style="fill:#B7092B;" d="M472,222H358.035c0.076,0.89,0.124,1.788,0.124,2.698c0,6.393-1.931,12.342-5.233,17.302H472
		c2.75,0,5-2.25,5-5v-10C477,224.25,474.75,222,472,222z"/>
	<path style="fill:#B7092B;" d="M153.841,224.698c0-0.91,0.048-1.808,0.124-2.698H40c-2.75,0-5,2.25-5,5v10c0,2.75,2.25,5,5,5
		h119.074C155.771,237.04,153.841,231.091,153.841,224.698z"/>
</g>
<path style="fill:#960B15;" d="M55,237v-10c0-2.75,2.25-5,5-5H40c-2.75,0-5,2.25-5,5v10c0,2.75,2.25,5,5,5h20
	C57.25,242,55,239.75,55,237z"/>
<path style="fill:#E52E49;" d="M256,299c-33.137,0-60,26.863-60,60v3.932c4.773,1.337,9.8,2.068,15,2.068
	c18.525,0,34.919-9.085,45-23.033C266.081,355.915,282.475,365,301,365c5.2,0,10.227-0.73,15-2.068V359
	C316,325.863,289.137,299,256,299z"/>
<path style="fill:#FE3745;" d="M256,299c-30.781,0-56.135,23.185-59.586,53.041c4.65,1.265,9.535,1.959,14.586,1.959
	c18.525,0,34.919-9.085,45-23.033C266.081,344.915,282.475,354,301,354c5.051,0,9.935-0.694,14.586-1.959
	C312.135,322.185,286.781,299,256,299z"/>
<path style="fill:#E52E49;" d="M256,299c-27.078,0-49.957,17.94-57.423,42.581C202.572,342.5,206.727,343,211,343
	c18.525,0,34.919-9.085,45-23.033C266.081,333.915,282.475,343,301,343c4.273,0,8.428-0.5,12.423-1.419
	C305.957,316.94,283.078,299,256,299z"/>
<path style="fill:#FE3745;" d="M256,299c-23.171,0-43.261,13.144-53.257,32.374C205.438,331.78,208.192,332,211,332
	c18.525,0,34.919-9.085,45-23.033C266.081,322.915,282.475,332,301,332c2.808,0,5.563-0.22,8.257-0.626
	C299.261,312.144,279.171,299,256,299z"/>
<path style="fill:#960B15;" d="M185.143,257c-17.811,0-32.302-14.49-32.302-32.302s14.491-32.302,32.302-32.302h141.715
	c17.811,0,32.302,14.49,32.302,32.302S344.669,257,326.858,257H185.143z"/>
<path style="fill:#EBAA48;" d="M348.458,224.698c0,11.93-9.67,21.602-21.601,21.602H185.143c-11.93,0-21.601-9.672-21.601-21.602
	l0,0c0-11.93,9.671-21.602,21.601-21.602h141.715C338.788,203.096,348.458,212.768,348.458,224.698L348.458,224.698z"/>
<path style="fill:#EF9614;" d="M184.084,224.698c0-11.93,9.671-21.602,21.601-21.602h-20.542c-11.93,0-21.601,9.671-21.601,21.602
	c0,11.93,9.671,21.602,21.601,21.602h20.542C193.755,246.3,184.084,236.628,184.084,224.698z"/>
<g>
	<path style="fill:#FFFFFF;" d="M197.984,237.796c-0.233,0-0.467-0.058-0.673-0.167l-6.221-3.27
		c-0.211-0.111-0.443-0.167-0.675-0.167c-0.231,0-0.463,0.056-0.675,0.167l-6.221,3.27c-0.206,0.109-0.439,0.167-0.673,0.167
		c-0.309,0-0.604-0.096-0.854-0.277c-0.449-0.327-0.67-0.871-0.576-1.418l1.187-6.926c0.081-0.47-0.073-0.95-0.417-1.283
		l-5.032-4.905c-0.398-0.388-0.539-0.958-0.366-1.487c0.173-0.528,0.62-0.906,1.172-0.986l6.954-1.01
		c0.471-0.069,0.879-0.366,1.091-0.794l3.109-6.301c0.247-0.499,0.745-0.809,1.301-0.809c0.558,0,1.054,0.31,1.301,0.809
		l3.109,6.301c0.212,0.428,0.62,0.725,1.093,0.794l6.954,1.01c0.55,0.08,0.997,0.458,1.17,0.986
		c0.171,0.529,0.031,1.099-0.368,1.487l-5.032,4.905c-0.34,0.333-0.496,0.813-0.415,1.283l1.189,6.926
		c0.094,0.547-0.129,1.091-0.58,1.418C198.588,237.7,198.294,237.796,197.984,237.796z"/>
	<path style="fill:#FFFFFF;" d="M230.776,237.796c-0.233,0-0.467-0.058-0.673-0.167l-6.221-3.27
		c-0.211-0.111-0.443-0.167-0.675-0.167c-0.231,0-0.464,0.056-0.675,0.167l-6.221,3.27c-0.206,0.109-0.439,0.167-0.673,0.167
		c-0.31,0-0.605-0.096-0.854-0.277c-0.449-0.327-0.67-0.871-0.575-1.418l1.186-6.926c0.081-0.47-0.073-0.95-0.417-1.283
		l-5.032-4.905c-0.397-0.388-0.539-0.958-0.366-1.487c0.171-0.528,0.62-0.906,1.172-0.986l6.954-1.01
		c0.471-0.069,0.879-0.366,1.091-0.794l3.11-6.301c0.246-0.499,0.744-0.809,1.3-0.809c0.558,0,1.054,0.31,1.301,0.809l3.108,6.301
		c0.213,0.428,0.619,0.725,1.094,0.794l6.954,1.01c0.55,0.08,0.997,0.458,1.17,0.986c0.171,0.529,0.031,1.099-0.368,1.487
		l-5.032,4.905c-0.34,0.333-0.496,0.813-0.415,1.283l1.186,6.926c0.096,0.547-0.126,1.091-0.577,1.418
		C231.38,237.7,231.086,237.796,230.776,237.796z"/>
	<path style="fill:#FFFFFF;" d="M263.568,237.796c-0.233,0-0.467-0.058-0.673-0.167l-6.221-3.27
		c-0.211-0.111-0.443-0.167-0.675-0.167c-0.231,0-0.464,0.056-0.675,0.167l-6.221,3.27c-0.206,0.109-0.44,0.167-0.673,0.167
		c-0.309,0-0.605-0.096-0.854-0.277c-0.451-0.327-0.67-0.871-0.576-1.418l1.187-6.926c0.081-0.47-0.073-0.95-0.417-1.283
		l-5.032-4.905c-0.398-0.388-0.539-0.958-0.366-1.487c0.171-0.528,0.62-0.906,1.172-0.986l6.952-1.01
		c0.473-0.069,0.881-0.366,1.093-0.794l3.109-6.301c0.247-0.499,0.745-0.809,1.301-0.809c0.556,0,1.054,0.31,1.301,0.809
		l3.107,6.301c0.212,0.428,0.62,0.725,1.095,0.794l6.954,1.01c0.55,0.08,0.997,0.458,1.17,0.986
		c0.171,0.529,0.031,1.099-0.368,1.487l-5.032,4.905c-0.34,0.333-0.496,0.813-0.415,1.283l1.186,6.926
		c0.094,0.547-0.127,1.091-0.578,1.418C264.172,237.7,263.877,237.796,263.568,237.796z"/>
	<path style="fill:#FFFFFF;" d="M296.36,237.796c-0.233,0-0.467-0.058-0.673-0.167l-6.221-3.27
		c-0.211-0.111-0.443-0.167-0.675-0.167s-0.464,0.056-0.675,0.167l-6.221,3.27c-0.206,0.109-0.44,0.167-0.673,0.167
		c-0.31,0-0.605-0.096-0.854-0.277c-0.45-0.327-0.67-0.871-0.576-1.418l1.187-6.926c0.081-0.47-0.075-0.95-0.417-1.283l-5.032-4.905
		c-0.398-0.388-0.539-0.958-0.366-1.487c0.171-0.528,0.62-0.906,1.172-0.986l6.952-1.01c0.473-0.069,0.881-0.366,1.092-0.794
		l3.11-6.301c0.245-0.499,0.745-0.809,1.301-0.809s1.054,0.31,1.3,0.809l3.108,6.301c0.212,0.428,0.62,0.725,1.095,0.794l6.952,1.01
		c0.552,0.08,0.999,0.458,1.172,0.986c0.171,0.529,0.031,1.099-0.368,1.487l-5.032,4.905c-0.34,0.333-0.496,0.813-0.417,1.283
		l1.188,6.926c0.094,0.547-0.127,1.091-0.577,1.418C296.964,237.7,296.67,237.796,296.36,237.796z"/>
	<path style="fill:#FFFFFF;" d="M329.152,237.796c-0.233,0-0.467-0.058-0.673-0.167l-6.221-3.27
		c-0.212-0.111-0.443-0.167-0.675-0.167s-0.464,0.056-0.675,0.167l-6.221,3.27c-0.206,0.109-0.44,0.167-0.673,0.167
		c-0.31,0-0.605-0.096-0.853-0.277c-0.451-0.327-0.67-0.871-0.576-1.418l1.187-6.926c0.081-0.47-0.075-0.95-0.417-1.283
		l-5.032-4.905c-0.397-0.388-0.539-0.958-0.366-1.487c0.171-0.528,0.619-0.906,1.17-0.986l6.954-1.01
		c0.473-0.069,0.881-0.366,1.093-0.794l3.109-6.301c0.245-0.499,0.745-0.809,1.301-0.809s1.054,0.31,1.3,0.809l3.108,6.301
		c0.212,0.428,0.62,0.725,1.095,0.794l6.952,1.01c0.552,0.08,0.999,0.458,1.172,0.986c0.171,0.529,0.031,1.099-0.368,1.487
		l-5.032,4.905c-0.34,0.333-0.496,0.813-0.417,1.283l1.188,6.926c0.095,0.547-0.126,1.091-0.577,1.418
		C329.756,237.7,329.461,237.796,329.152,237.796z"/>
</g>
<path style="fill:#1A2B63;" d="M256,50c2.76,0,5.329,0.813,7.5,2.198V3c0-1.65-1.35-3-3-3h-9c-1.65,0-3,1.35-3,3v49.198
	C250.671,50.813,253.24,50,256,50z"/>
<path style="fill:#B7092B;" d="M320.7,129.11c-20.131-16.56-38.058-35.628-53.457-56.804C264.691,75.752,260.608,78,256,78
	c-4.607,0-8.69-2.247-11.243-5.693c-15.399,21.176-33.326,40.245-53.457,56.803c-1.092,0.897-1.503,2.394-1.027,3.724
	c0.477,1.331,1.747,2.225,3.16,2.225h125.135c1.413,0,2.683-0.894,3.16-2.224C322.203,131.504,321.791,130.008,320.7,129.11z"/>
<path style="fill:#960B15;" d="M212.223,129.11c18.87-15.521,35.8-33.253,50.531-52.855C260.75,77.364,258.448,78,256,78
	c-4.607,0-8.69-2.247-11.243-5.693c-15.399,21.176-33.326,40.245-53.457,56.803c-1.092,0.897-1.503,2.394-1.027,3.724
	c0.477,1.331,1.747,2.225,3.16,2.225h20.923c-1.413,0-2.683-0.894-3.16-2.225C210.72,131.504,211.131,130.008,212.223,129.11z"/>
<circle style="fill:#E52E49;" cx="256" cy="64" r="15"/>
<path style="fill:#C0272D;" d="M251,64c0-6.528,4.178-12.067,10-14.128c-1.566-0.555-3.244-0.872-5-0.872c-8.284,0-15,6.716-15,15
	s6.716,15,15,15c1.756,0,3.434-0.317,5-0.872C255.178,76.067,251,70.528,251,64z"/>
<g>
	<path style="fill:#4CCC76;" d="M213.5,483h-15c-4.143,0-7.5-3.358-7.5-7.5s3.357-7.5,7.5-7.5h15c4.143,0,7.5,3.358,7.5,7.5
		S217.643,483,213.5,483z"/>
	<path style="fill:#4CCC76;" d="M141.5,472h-15c-1.23,0-2.388,0.302-3.412,0.826c7.257,4.696,14.781,9.012,22.537,12.935
		c2.032-1.342,3.375-3.644,3.375-6.261C149,475.358,145.643,472,141.5,472z"/>
	<path style="fill:#4CCC76;" d="M263.5,505h-15c-4.143,0-7.5-3.358-7.5-7.5s3.357-7.5,7.5-7.5h15c4.143,0,7.5,3.358,7.5,7.5
		S267.643,505,263.5,505z"/>
	<path style="fill:#4CCC76;" d="M313.5,488h-15c-4.143,0-7.5-3.358-7.5-7.5s3.357-7.5,7.5-7.5h15c4.143,0,7.5,3.358,7.5,7.5
		S317.643,488,313.5,488z"/>
	<path style="fill:#4CCC76;" d="M370.5,476h-15c-4.143,0-7.5,3.358-7.5,7.5c0,4.098,3.288,7.423,7.369,7.493
		c7.457-3.314,14.711-6.997,21.753-11.012C375.861,477.613,373.37,476,370.5,476z"/>
</g>
<g>
</g>
<g>
</g>
<g>
</g>
<g>
</g>
<g>
</g>
<g>
</g>
<g>
</g>
<g>
</g>
<g>
</g>
<g>
</g>
<g>
</g>
<g>
</g>
<g>
</g>
<g>
</g>
<g>
</g>
</svg>
