<svg height="512pt" viewBox="0 0 512 512" width="512pt" xmlns="http://www.w3.org/2000/svg"><path d="m459.933594 355.796875v147.523437c0 4.792969-3.886719 8.679688-8.679688 8.679688h-399.1875c-4.792968 0-8.675781-3.886719-8.675781-8.679688v-156.203124c23.949219 0 43.390625 10.5 43.390625-8.675782 0 19.175782 19.4375 17.355469 43.386719 17.355469 23.953125 0 43.390625 1.820313 43.390625-17.355469 0 19.175782 17.445312 17.355469 39.050781 17.355469 21.609375 0 39.050781 1.820313 39.050781-17.355469 0 19.175782 17.445313 17.355469 39.050782 17.355469 21.609374 0 39.050781 1.820313 39.050781-17.355469 0 19.175782 19.441406 17.355469 43.390625 17.355469 23.953125 0 43.390625 1.820313 43.390625-17.355469 0 19.175782 19.4375 17.355469 43.390625 17.355469zm0 0" fill="#f0c419"/><path d="m459.933594 312.40625v60.746094c-23.953125 0-43.390625-15.535156-43.390625-34.710938 0 19.175782-19.4375 34.710938-43.390625 34.710938-23.949219 0-43.390625-15.535156-43.390625-34.710938-1.25 20.34375-18.699219 35.851563-39.050781 34.710938-20.347657 1.140625-37.796876-14.367188-39.050782-34.710938-1.25 20.34375-18.699218 35.851563-39.050781 34.710938-20.347656 1.140625-37.796875-14.367188-39.050781-34.710938 0 19.175782-19.4375 34.710938-43.390625 34.710938-23.949219 0-43.386719-15.535156-43.386719-34.710938 0 19.175782-19.441406 34.710938-43.390625 34.710938v-60.746094zm0 0" fill="#f29c1f"/><path d="m251.660156 8.679688s-2.601562 20.824218-58.820312 8.511718c-2.570313-.585937-5.265625.03125-7.332032 1.671875-2.0625 1.644531-3.265624 4.132813-3.269531 6.769531v19.648438c0 3.996094 2.726563 7.472656 6.601563 8.425781 60.121094 14.144531 62.820312-7.609375 62.820312-7.609375zm0 0" fill="#e64c3c"/><path d="m251.660156 95.457031c-4.792968 0-8.675781-3.882812-8.675781-8.675781v-78.101562c0-4.792969 3.882813-8.679688 8.675781-8.679688 4.792969 0 8.679688 3.886719 8.679688 8.679688v78.101562c0 4.792969-3.886719 8.675781-8.679688 8.675781zm0 0" fill="#af8066"/><path d="m251.660156 86.78125-164.878906 234.304688h-86.78125zm0 0" fill="#c03a2b"/><path d="m503.320312 321.085938h-86.777343l-164.882813-234.304688zm0 0" fill="#bdc3c7"/><path d="m86.78125 321.085938c0 19.175781-19.441406 34.710937-43.390625 34.710937-23.953125 0-43.390625-15.535156-43.390625-34.710937zm0 0" fill="#e64c3c"/><path d="m251.660156 86.78125v234.304688h-78.101562zm0 0" fill="#c03a2b"/><path d="m251.660156 321.085938c-1.25 20.339843-18.699218 35.851562-39.050781 34.710937-20.347656 1.140625-37.796875-14.371094-39.050781-34.710937zm0 0" fill="#e64c3c"/><path d="m251.660156 86.78125-78.101562 234.304688h-86.777344zm0 0" fill="#bdc3c7"/><path d="m173.558594 321.085938c0 19.175781-19.4375 34.710937-43.390625 34.710937-23.949219 0-43.386719-15.535156-43.386719-34.710937zm0 0" fill="#ecf0f1"/><path d="m503.320312 321.085938c0 19.175781-19.4375 34.710937-43.386718 34.710937-23.953125 0-43.390625-15.535156-43.390625-34.710937zm0 0" fill="#ecf0f1"/><path d="m329.761719 321.085938h-78.101563v-234.304688zm0 0" fill="#bdc3c7"/><path d="m416.542969 321.085938h-86.78125l-78.101563-234.304688zm0 0" fill="#c03a2b"/><path d="m416.542969 321.085938c0 19.175781-19.4375 34.710937-43.390625 34.710937-23.949219 0-43.390625-15.535156-43.390625-34.710937zm0 0" fill="#e64c3c"/><path d="m329.761719 321.085938c-1.25 20.339843-18.699219 35.851562-39.050781 34.710937-20.347657 1.140625-37.796876-14.371094-39.050782-34.710937zm0 0" fill="#ecf0f1"/><path d="m199.59375 390.507812h104.136719c9.582031 0 17.355469 7.769532 17.355469 17.355469 0 9.585938-7.773438 17.355469-17.355469 17.355469h-104.136719c-9.585938 0-17.355469-7.769531-17.355469-17.355469 0-9.585937 7.769531-17.355469 17.355469-17.355469zm0 0" fill="#e57e25"/><path d="m199.59375 425.21875h104.136719v86.78125h-104.136719zm0 0" fill="#c03a2b"/><path d="m86.78125 407.863281c-4.792969 0-8.679688-3.882812-8.679688-8.675781v-17.355469c0-4.792969 3.886719-8.679687 8.679688-8.679687s8.675781 3.886718 8.675781 8.679687v17.355469c0 4.792969-3.882812 8.675781-8.675781 8.675781zm0 0" fill="#e57e25"/><path d="m95.457031 433.898438v78.101562h-17.355469v-78.101562c0-4.792969 3.886719-8.679688 8.679688-8.679688s8.675781 3.886719 8.675781 8.679688zm0 0" fill="#e57e25"/><path d="m147.527344 407.863281c-4.792969 0-8.679688-3.882812-8.679688-8.675781v-17.355469c0-4.792969 3.886719-8.679687 8.679688-8.679687 4.789062 0 8.675781 3.886718 8.675781 8.679687v17.355469c0 4.792969-3.886719 8.675781-8.675781 8.675781zm0 0" fill="#e57e25"/><path d="m156.203125 433.898438v78.101562h-17.355469v-78.101562c0-4.792969 3.886719-8.679688 8.679688-8.679688 4.789062 0 8.675781 3.886719 8.675781 8.679688zm0 0" fill="#e57e25"/><path d="m355.796875 407.863281c-4.792969 0-8.679687-3.882812-8.679687-8.675781v-17.355469c0-4.792969 3.886718-8.679687 8.679687-8.679687s8.675781 3.886718 8.675781 8.679687v17.355469c0 4.792969-3.882812 8.675781-8.675781 8.675781zm0 0" fill="#e57e25"/><path d="m364.472656 433.898438v78.101562h-17.355468v-78.101562c0-4.792969 3.886718-8.679688 8.679687-8.679688s8.675781 3.886719 8.675781 8.679688zm0 0" fill="#e57e25"/><path d="m416.542969 407.863281c-4.792969 0-8.679688-3.882812-8.679688-8.675781v-17.355469c0-4.792969 3.886719-8.679687 8.679688-8.679687s8.675781 3.886718 8.675781 8.679687v17.355469c0 4.792969-3.882812 8.675781-8.675781 8.675781zm0 0" fill="#e57e25"/><path d="m425.21875 433.898438v78.101562h-17.355469v-78.101562c0-4.792969 3.886719-8.679688 8.679688-8.679688s8.675781 3.886719 8.675781 8.679688zm0 0" fill="#e57e25"/><g fill="#f0c419"><path d="m43.390625 78.101562h-8.679687c-4.792969 0-8.675782-3.886718-8.675782-8.679687 0-4.789063 3.882813-8.675781 8.675782-8.675781h8.679687c4.792969 0 8.675781 3.886718 8.675781 8.675781 0 4.792969-3.882812 8.679687-8.675781 8.679687zm0 0"/><path d="m86.78125 78.101562h-8.679688c-4.792968 0-8.679687-3.886718-8.679687-8.679687 0-4.789063 3.886719-8.675781 8.679687-8.675781h8.679688c4.792969 0 8.675781 3.886718 8.675781 8.675781 0 4.792969-3.882812 8.679687-8.675781 8.679687zm0 0"/><path d="m60.746094 104.136719c-4.792969 0-8.679688-3.886719-8.679688-8.679688v-8.675781c0-4.792969 3.886719-8.679688 8.679688-8.679688 4.792968 0 8.675781 3.886719 8.675781 8.679688v8.675781c0 4.792969-3.882813 8.679688-8.675781 8.679688zm0 0"/><path d="m60.746094 60.746094c-4.792969 0-8.679688-3.886719-8.679688-8.679688v-8.675781c0-4.792969 3.886719-8.679687 8.679688-8.679687 4.792968 0 8.675781 3.886718 8.675781 8.679687v8.675781c0 4.792969-3.882813 8.679688-8.675781 8.679688zm0 0"/><path d="m425.21875 182.238281h-8.675781c-4.792969 0-8.679688-3.886719-8.679688-8.679687 0-4.792969 3.886719-8.675782 8.679688-8.675782h8.675781c4.792969 0 8.679688 3.882813 8.679688 8.675782 0 4.792968-3.886719 8.679687-8.679688 8.679687zm0 0"/><path d="m468.609375 182.238281h-8.675781c-4.792969 0-8.679688-3.886719-8.679688-8.679687 0-4.792969 3.886719-8.675782 8.679688-8.675782h8.675781c4.792969 0 8.679687 3.882813 8.679687 8.675782 0 4.792968-3.886718 8.679687-8.679687 8.679687zm0 0"/><path d="m442.578125 208.269531c-4.792969 0-8.679687-3.882812-8.679687-8.675781v-8.679688c0-4.792968 3.886718-8.675781 8.679687-8.675781 4.789063 0 8.675781 3.882813 8.675781 8.675781v8.679688c0 4.792969-3.886718 8.675781-8.675781 8.675781zm0 0"/><path d="m442.578125 164.882812c-4.792969 0-8.679687-3.886718-8.679687-8.679687v-8.675781c0-4.792969 3.886718-8.679688 8.679687-8.679688 4.789063 0 8.675781 3.886719 8.675781 8.679688v8.675781c0 4.792969-3.886718 8.679687-8.675781 8.679687zm0 0"/><path d="m459.933594 43.390625h-8.679688c-4.792968 0-8.675781-3.886719-8.675781-8.679687 0-4.792969 3.882813-8.675782 8.675781-8.675782h8.679688c4.792968 0 8.675781 3.882813 8.675781 8.675782 0 4.792968-3.882813 8.679687-8.675781 8.679687zm0 0"/><path d="m503.320312 43.390625h-8.675781c-4.792969 0-8.679687-3.886719-8.679687-8.679687 0-4.792969 3.886718-8.675782 8.679687-8.675782h8.675781c4.792969 0 8.679688 3.882813 8.679688 8.675782 0 4.792968-3.886719 8.679687-8.679688 8.679687zm0 0"/><path d="m477.289062 69.421875c-4.792968 0-8.679687-3.882813-8.679687-8.675781v-8.679688c0-4.792968 3.886719-8.675781 8.679687-8.675781 4.792969 0 8.675782 3.882813 8.675782 8.675781v8.679688c0 4.792968-3.882813 8.675781-8.675782 8.675781zm0 0"/><path d="m477.289062 26.035156c-4.792968 0-8.679687-3.886718-8.679687-8.679687v-8.675781c0-4.792969 3.886719-8.679688 8.679687-8.679688 4.792969 0 8.675782 3.886719 8.675782 8.679688v8.675781c0 4.792969-3.882813 8.679687-8.675782 8.679687zm0 0"/></g></svg>