<svg height="504pt" viewBox="0 0 504 504.03031" width="504pt" xmlns="http://www.w3.org/2000/svg"><path d="m62.964844 495.636719h-4.195313c-4.636719 0-8.394531-3.757813-8.394531-8.394531v-151.082032c4.433594.058594 8.859375.339844 13.261719.839844 1.175781.167969 2.265625.335938 3.359375.503906-3.949219 1.566406-8.265625 1.945313-12.421875 1.089844v148.648438c0 4.636718 3.757812 8.394531 8.390625 8.394531zm0 0" fill="#ffb301"/><path d="m453.261719 344.554688v142.6875c0 4.636718-3.757813 8.394531-8.394531 8.394531h-20.984376c4.636719 0 8.394532-3.757813 8.394532-8.394531v-142.6875c-9.8125.53125-19.652344.082031-29.375-1.34375-.726563-.132813-1.433594-.359376-2.101563-.671876 6.714844-1.585937 11.207031-7.910156 10.492188-14.769531 0 18.546875 18.800781 16.785157 41.96875 16.785157zm0 0" fill="#ffb301"/><g fill="#fec108"><path d="m432.277344 344.554688v142.6875c0 4.636718-3.757813 8.394531-8.394532 8.394531h-360.917968c-4.632813 0-8.390625-3.757813-8.390625-8.394531v-148.648438c4.15625.855469 8.472656.476562 12.421875-1.089844 1.171875.167969 2.179687.335938 3.273437.421875 1.675781.167969 3.273438.417969 4.78125.585938 10.492188 1.175781 17.292969.417969 17.292969-10.742188 0 14.183594 10.828125 16.535157 26.1875 16.785157 2.515625.085937 4.953125.085937 7.386719.085937 1.089843 0 2.097656 0 3.1875-.085937h5.203125c9.589844.503906 19.203125.082031 28.707031-1.257813.765625-.15625 1.523437-.351563 2.265625-.589844 6.960938-1.410156 11.714844-7.871093 10.996094-14.9375 0 13.765625 9.234375 16.367188 22.496094 16.785157 2.347656.085937 4.699218.085937 6.882812.085937.921875 0 1.84375 0 2.683594-.085937 13.261718-.417969 22.496094-3.019532 22.496094-16.785157-.929688 6.988281 3.617187 13.535157 10.492187 15.105469 6.871094-1.570312 11.417969-8.117188 10.492187-15.105469 0 13.765625 9.230469 16.367188 22.492188 16.785157 2.351562.085937 4.699219.085937 6.882812.085937.921876 0 1.847657 0 2.6875-.085937 13.261719-.417969 22.492188-3.019532 22.492188-16.785157-.71875 7.066407 4.035156 13.527344 10.996094 14.9375 6.605468-1.769531 10.875-8.160156 9.988281-14.9375 0 14.183594 10.828125 16.535157 26.1875 16.785157 2.519531.085937 4.953125.085937 7.386719.085937 1.089844 0 2.097656 0 3.1875-.085937 15.363281-.25 26.1875-2.601563 26.1875-16.785157-.710938 6.859375 3.78125 13.183594 10.492187 14.769531.671875.335938 7.992188-14.9375 8.746094-14.769531 7.554687 1.761719 11.316406 16.785157 22.730469 16.785157zm0 0"/><path d="m75.050781 338.511719c-1.507812-.167969-3.105469-.417969-4.78125-.585938-1.09375-.085937-2.101562-.253906-3.273437-.421875.304687-.117187.589844-.289062.839844-.503906 2.65625-2.285156 3.984374-5.757812 3.523437-9.230469-.210937 3.644531.890625 7.25 3.105469 10.15625.175781.214844.371094.410157.585937.585938zm0 0"/><path d="m165.28125 342.707031c-.742188.238281-1.5.433594-2.265625.589844-9.503906 1.339844-19.117187 1.761719-28.707031 1.257813h-5.203125c15.359375-.25 26.1875-2.601563 26.1875-16.785157-.886719 6.777344 3.386719 13.167969 9.988281 14.9375zm0 0"/></g><path d="m251.820312 8.816406s-2.519531 20.144532-56.894531 8.234375c-2.484375-.566406-5.09375.03125-7.089843 1.617188-1.996094 1.589843-3.160157 4-3.164063 6.550781v19.003906c0 3.859375 2.636719 7.226563 6.386719 8.148438 58.148437 13.679687 60.761718-7.351563 60.761718-7.351563zm0 0" fill="#f44335"/><path d="m251.820312 84.359375-159.476562 226.621094h-83.933594zm0 0" fill="#c52828"/><path d="m495.226562 310.980469h-83.933593l-111.632813-158.636719-47.839844-67.984375zm0 0" fill="#9e9e9e"/><path d="m92.34375 310.980469c0 18.550781-18.800781 33.574219-41.96875 33.574219-3.527344.023437-7.042969-.339844-10.492188-1.089844-18.128906-3.695313-31.472656-16.871094-31.472656-32.484375zm0 0" fill="#c52828"/><path d="m190.964844 141.015625-119.605469 169.964844h-62.949219zm0 0" fill="#f44335"/><path d="m71.359375 310.980469c0 15.613281-13.34375 28.789062-31.476563 32.484375-18.128906-3.695313-31.472656-16.871094-31.472656-32.484375zm0 0" fill="#f44335"/><path d="m251.820312 84.359375v226.621094h-75.542968zm0 0" fill="#c52828"/><path d="m251.820312 310.980469c-1.214843 19.675781-18.089843 34.679687-37.773437 33.574219-3.539063.023437-7.070313-.425782-10.492187-1.34375-15.390626-3.246094-26.617188-16.515626-27.277344-32.230469zm0 0" fill="#c52828"/><path d="m230.835938 147.308594v163.671875h-54.558594zm0 0" fill="#f44335"/><path d="m230.835938 310.980469c-.660157 15.714843-11.890626 28.984375-27.28125 32.230469-15.390626-3.246094-26.617188-16.515626-27.277344-32.230469zm0 0" fill="#f44335"/><path d="m251.820312 84.359375-75.542968 226.621094h-83.933594zm0 0" fill="#9e9e9e"/><path d="m176.277344 310.980469c0 18.550781-18.800782 33.574219-41.96875 33.574219-3.523438.023437-7.042969-.339844-10.488282-1.089844-18.132812-3.695313-31.476562-16.871094-31.476562-32.484375zm0 0" fill="#9e9e9e"/><path d="m211.949219 141.015625-56.65625 169.964844h-62.949219zm0 0" fill="#f4f4f4"/><path d="m155.292969 310.980469c0 15.613281-13.34375 28.789062-31.472657 32.484375-18.132812-3.695313-31.476562-16.871094-31.476562-32.484375zm0 0" fill="#f4f4f4"/><path d="m495.226562 310.980469c0 18.550781-18.800781 33.574219-41.964843 33.574219-4.214844.019531-8.417969-.488282-12.507813-1.511719h-.167968c-15.921876-2.773438-27.964844-15.953125-29.292969-32.0625zm0 0" fill="#9e9e9e"/><path d="m470.046875 310.980469h-58.753906l-111.632813-158.636719zm0 0" fill="#f4f4f4"/><path d="m470.046875 310.980469c-1.324219 16.109375-13.367187 29.289062-29.292969 32.0625h-.167968c-15.921876-2.773438-27.964844-15.953125-29.292969-32.0625zm0 0" fill="#f4f4f4"/><path d="m327.359375 310.980469h-75.539063v-226.621094zm0 0" fill="#9e9e9e"/><path d="m411.292969 310.980469h-83.933594l-52.878906-158.636719-22.660157-67.984375zm0 0" fill="#c52828"/><path d="m411.292969 310.980469c0 18.550781-18.800781 33.574219-41.964844 33.574219-4.21875.019531-8.417969-.488282-12.507813-1.511719h-.167968c-15.925782-2.773438-27.964844-15.953125-29.292969-32.0625zm0 0" fill="#c52828"/><path d="m386.113281 310.980469h-58.753906l-52.878906-158.636719zm0 0" fill="#f44335"/><path d="m386.113281 310.980469c-1.328125 16.109375-13.367187 29.289062-29.292969 32.0625h-.167968c-15.925782-2.773438-27.964844-15.953125-29.292969-32.0625zm0 0" fill="#f44335"/><path d="m327.359375 310.980469c-1.210937 19.675781-18.089844 34.679687-37.769531 33.574219-3.542969.023437-7.070313-.425782-10.492188-1.34375-15.390625-3.246094-26.621094-16.515626-27.277344-32.230469zm0 0" fill="#9e9e9e"/><path d="m306.375 310.980469h-54.554688v-163.671875zm0 0" fill="#f4f4f4"/><path d="m306.375 310.980469c-.65625 15.714843-11.886719 28.984375-27.277344 32.230469-15.390625-3.246094-26.621094-16.515626-27.277344-32.230469zm0 0" fill="#f4f4f4"/><path d="m318.964844 394.914062c-.066406 9.242188-7.542969 16.71875-16.785156 16.789063h-100.722657c-9.257812-.027344-16.757812-7.527344-16.785156-16.789063.066406-9.242187 7.542969-16.71875 16.785156-16.785156h100.722657c9.257812.027344 16.757812 7.527344 16.785156 16.785156zm0 0" fill="#f57c00"/><path d="m302.179688 394.914062c-.070313 9.242188-7.542969 16.71875-16.789063 16.789063h-83.933594c-9.257812-.027344-16.757812-7.527344-16.785156-16.789063.066406-9.242187 7.542969-16.71875 16.785156-16.785156h83.933594c9.261719.027344 16.761719 7.527344 16.789063 16.785156zm0 0" fill="#ff9801"/><path d="m201.457031 411.703125h100.722657v83.933594h-100.722657zm0 0" fill="#c52828"/><path d="m201.457031 411.703125h83.933594v83.933594h-83.933594zm0 0" fill="#f44335"/><path d="m.570312 308.226562c-.25.71875-.398437 1.46875-.445312 2.226563 0 .183594-.109375.34375-.109375.527344v.496093.210938c.410156 20.4375 18.414063 37.324219 41.964844 40.632812v134.921876c0 9.273437 7.519531 16.789062 16.789062 16.789062h386.097657c9.273437 0 16.789062-7.515625 16.789062-16.789062v-134.921876c23.5-3.308593 41.511719-20.195312 41.921875-40.632812v-.210938c0-.167968 0-.328124 0-.496093s-.089844-.34375-.109375-.527344c-.046875-.757813-.195312-1.507813-.441406-2.226563-.097656-.285156-.207032-.566406-.335938-.835937-.335937-.695313-.769531-1.335937-1.285156-1.90625-.121094-.175781-.253906-.34375-.394531-.503906-.042969 0-.058594-.09375-.101563-.136719l-240.699218-224.144531v-71.882813c.0625-4.5-3.320313-8.304687-7.796876-8.769531-4.328124-.464844-8.230468 2.628906-8.769531 6.949219-1.292969 3.355468-14.523437 10.515625-56.859375-.527344-2.515625-.65625-5.191406-.109375-7.25 1.480469-2.054687 1.589843-3.257812 4.042969-3.257812 6.644531v36.191406c0 3.820313 2.578125 7.160156 6.277344 8.125 27.035156 7.050782 47.441406 8.324219 60.871093 3.835938v17.953125l-240.742187 224.136719c-.042969.042968-.058594.09375-.101563.136718-.039062.039063-.25.335938-.394531.492188-.515625.578125-.949219 1.222656-1.292969 1.914062-.125.246094-.226562.554688-.324219.847656zm18.296876 11.148438h63.019531c-6.535157 11.054688-18.691407 17.53125-31.511719 16.785156-12.816406.746094-24.976562-5.730468-31.507812-16.785156zm241.34375-183.304688 55.507812 166.515626h-55.507812zm-16.785157 166.515626h-55.507812l55.507812-166.515626zm-1.804687 16.789062c-5.34375 10.289062-15.96875 16.75-27.566406 16.75-11.59375 0-22.222657-6.460938-27.5625-16.75zm75.539062 0c-5.339844 10.289062-15.96875 16.75-27.5625 16.75s-22.222656-6.460938-27.5625-16.75zm16.269532-16.789062-55.589844-166.632813 117.289062 166.632813zm67.441406 16.789062c-6.542969 11.058594-18.714844 17.539062-31.542969 16.785156-12.820313.746094-24.980469-5.730468-31.511719-16.785156zm-230.644532-16.789062h-61.71875l117.289063-166.632813zm-4.40625 16.789062c-6.53125 11.054688-18.691406 17.53125-31.511718 16.785156-12.820313.746094-24.984375-5.730468-31.523438-16.785156zm136.359376 83.933594h-100.722657c-4.636719 0-8.394531-3.757813-8.394531-8.394532 0-4.632812 3.757812-8.390624 8.394531-8.390624h100.722657c4.636718 0 8.394531 3.757812 8.394531 8.390624 0 4.636719-3.757813 8.394532-8.394531 8.394532zm-92.328126 83.933594v-67.144532h83.933594v67.144532zm209.835938 0v-67.144532c0-4.636718-3.757812-8.394531-8.394531-8.394531-4.632813 0-8.390625 3.757813-8.390625 8.394531v67.144532h-41.96875v-67.144532c0-4.636718-3.757813-8.394531-8.394532-8.394531-4.636718 0-8.394531 3.757813-8.394531 8.394531v67.144532h-33.570312v-68.691407c11.550781-4.070312 18.488281-15.878906 16.410156-27.949219-2.074219-12.074218-12.554687-20.890624-24.804687-20.867187h-100.722657c-12.25-.023437-22.730469 8.792969-24.804687 20.867187-2.078125 12.070313 4.859375 23.878907 16.410156 27.949219v68.691407h-33.570312v-67.144532c0-4.636718-3.757813-8.394531-8.394532-8.394531-4.636718 0-8.394531 3.757813-8.394531 8.394531v67.144532h-41.964844v-67.144532c0-4.636718-3.757812-8.394531-8.394531-8.394531s-8.394531 3.757813-8.394531 8.394531v67.144532h-25.179688v-134.921876c13.089844-1.589843 25.089844-8.09375 33.574219-18.191406 10.445312 12.269532 25.859375 19.179688 41.964844 18.820313 15.898437.34375 31.132812-6.371094 41.597656-18.339844 9.203125 11.511719 23.117188 18.253906 37.855469 18.335937 14.738281.082032 28.726562-6.5 38.058593-17.910156 9.328126 11.410156 23.316407 17.992188 38.054688 17.910156 14.738281-.082031 28.652344-6.824218 37.855469-18.335937 10.730469 11.777344 25.953125 18.449219 41.886719 18.355469 15.933593-.089844 31.082031-6.933594 41.675781-18.835938 8.484375 10.097656 20.484375 16.601563 33.574219 18.191406v134.921876zm33.574219-151.082032c-12.816407.746094-24.976563-5.730468-31.507813-16.785156h63.015625c-6.53125 11.054688-18.691406 17.53125-31.507812 16.785156zm0-33.574218h-37.613281l-110.664063-157.265626 168.90625 157.265626zm-260.199219-258.363282v-18.988281c16.402344 4.730469 33.738281 5.183594 50.363281 1.316406v17.074219c-2.097656 3.308594-14.605469 8.980469-50.363281.597656zm5.59375 101.097656-110.667969 157.265626h-58.242187zm0 0"/><path d="m92.34375 361.339844c-4.636719 0-8.394531 3.761718-8.394531 8.394531v16.789063c0 4.632812 3.757812 8.390624 8.394531 8.390624s8.394531-3.757812 8.394531-8.390624v-16.789063c0-4.632813-3.757812-8.394531-8.394531-8.394531zm0 0"/><path d="m151.097656 361.339844c-4.636718 0-8.394531 3.761718-8.394531 8.394531v16.789063c0 4.632812 3.757813 8.390624 8.394531 8.390624 4.636719 0 8.394532-3.757812 8.394532-8.390624v-16.789063c0-4.632813-3.757813-8.394531-8.394532-8.394531zm0 0"/><path d="m352.539062 361.339844c-4.636718 0-8.394531 3.761718-8.394531 8.394531v16.789063c0 4.632812 3.757813 8.390624 8.394531 8.390624 4.636719 0 8.394532-3.757812 8.394532-8.390624v-16.789063c0-4.632813-3.757813-8.394531-8.394532-8.394531zm0 0"/><path d="m411.292969 361.339844c-4.632813 0-8.390625 3.761718-8.390625 8.394531v16.789063c0 4.632812 3.757812 8.390624 8.390625 8.390624 4.636719 0 8.394531-3.757812 8.394531-8.390624v-16.789063c0-4.632813-3.757812-8.394531-8.394531-8.394531zm0 0"/><path d="m33.589844 67.570312c0 4.636719 3.757812 8.394532 8.390625 8.394532h8.394531c4.636719 0 8.394531-3.757813 8.394531-8.394532 0-4.632812-3.757812-8.390624-8.394531-8.390624h-8.394531c-4.632813 0-8.390625 3.757812-8.390625 8.390624zm0 0"/><path d="m83.949219 75.964844h8.394531c4.636719 0 8.394531-3.757813 8.394531-8.394532 0-4.632812-3.757812-8.390624-8.394531-8.390624h-8.394531c-4.636719 0-8.394531 3.757812-8.394531 8.390624 0 4.636719 3.757812 8.394532 8.394531 8.394532zm0 0"/><path d="m67.164062 101.144531c4.632813 0 8.390626-3.757812 8.390626-8.394531v-8.390625c0-4.636719-3.757813-8.394531-8.390626-8.394531-4.636718 0-8.394531 3.757812-8.394531 8.394531v8.390625c0 4.636719 3.757813 8.394531 8.394531 8.394531zm0 0"/><path d="m75.554688 42.390625c0-4.636719-3.757813-8.394531-8.390626-8.394531-4.636718 0-8.394531 3.757812-8.394531 8.394531v8.394531c0 4.636719 3.757813 8.394532 8.394531 8.394532 4.632813 0 8.390626-3.757813 8.390626-8.394532zm0 0"/><path d="m419.6875 159.898438h-8.394531c-4.632813 0-8.390625 3.757812-8.390625 8.394531s3.757812 8.394531 8.390625 8.394531h8.394531c4.636719 0 8.394531-3.757812 8.394531-8.394531s-3.757812-8.394531-8.394531-8.394531zm0 0"/><path d="m453.261719 176.6875h8.394531c4.632812 0 8.390625-3.757812 8.390625-8.394531s-3.757813-8.394531-8.390625-8.394531h-8.394531c-4.636719 0-8.394531 3.757812-8.394531 8.394531s3.757812 8.394531 8.394531 8.394531zm0 0"/><path d="m436.472656 201.867188c4.636719 0 8.394532-3.757813 8.394532-8.394532v-8.394531c0-4.632813-3.757813-8.390625-8.394532-8.390625-4.632812 0-8.390625 3.757812-8.390625 8.390625v8.394531c0 4.636719 3.757813 8.394532 8.390625 8.394532zm0 0"/><path d="m444.867188 143.113281c0-4.636719-3.757813-8.394531-8.394532-8.394531-4.632812 0-8.390625 3.757812-8.390625 8.394531v8.390625c0 4.636719 3.757813 8.394532 8.390625 8.394532 4.636719 0 8.394532-3.757813 8.394532-8.394532zm0 0"/><path d="m436.472656 33.996094c0 4.636718 3.757813 8.394531 8.394532 8.394531h8.394531c4.636719 0 8.394531-3.757813 8.394531-8.394531 0-4.632813-3.757812-8.390625-8.394531-8.390625h-8.394531c-4.636719 0-8.394532 3.757812-8.394532 8.390625zm0 0"/><path d="m478.441406 33.996094c0 4.636718 3.757813 8.394531 8.394532 8.394531h8.390624c4.636719 0 8.394532-3.757813 8.394532-8.394531 0-4.632813-3.757813-8.390625-8.394532-8.390625h-8.390624c-4.636719 0-8.394532 3.757812-8.394532 8.390625zm0 0"/><path d="m478.441406 59.179688v-8.394532c0-4.636718-3.757812-8.394531-8.394531-8.394531-4.632813 0-8.390625 3.757813-8.390625 8.394531v8.394532c0 4.632812 3.757812 8.390624 8.390625 8.390624 4.636719 0 8.394531-3.757812 8.394531-8.390624zm0 0"/><path d="m478.441406 8.816406c0-4.636718-3.757812-8.394531-8.394531-8.394531-4.632813 0-8.390625 3.757813-8.390625 8.394531v8.394532c0 4.636718 3.757812 8.394531 8.390625 8.394531 4.636719 0 8.394531-3.757813 8.394531-8.394531zm0 0"/></svg>