<?xml version="1.0" encoding="iso-8859-1"?>
<!-- Generator: Adobe Illustrator 19.0.0, SVG Export Plug-In . SVG Version: 6.00 Build 0)  -->
<svg version="1.1" id="Capa_1" xmlns="http://www.w3.org/2000/svg" xmlns:xlink="http://www.w3.org/1999/xlink" x="0px" y="0px"
	 viewBox="0 0 512 512" style="enable-background:new 0 0 512 512;" xml:space="preserve">
<path style="fill:#0D70B2;" d="M377,270H257c-8.284,0-15-6.716-15-15V135c0-8.284,6.716-15,15-15s15,6.716,15,15v105h105
	c8.284,0,15,6.716,15,15S385.284,270,377,270z"/>
<path style="fill:#B758CE;" d="M257,512c-34.416,0-67.932-6.855-99.618-20.376c-30.537-13.03-58.022-31.64-81.694-55.312
	s-42.282-51.157-55.312-81.694C6.855,322.932,0,289.416,0,255c0-68.024,26.901-132.082,75.749-180.373
	C124.427,26.503,188.796,0,257,0c68.113,0,132.149,26.524,180.313,74.688C485.476,122.851,512,186.887,512,255
	c0,68.204-26.503,132.573-74.627,181.251C389.082,485.099,325.024,512,257,512z M257,30C131.832,30,30,130.935,30,255
	c0,125.168,101.832,227,227,227c124.065,0,225-101.832,225-227C482,130.935,381.065,30,257,30z"/>
<path style="fill:#C5C9F7;" d="M257,452c-52.012,0-101.315-20.659-138.828-58.172S60,307.012,60,255
	c0-51.935,20.688-100.912,58.253-137.909C155.633,80.275,204.908,60,257,60c107.523,0,195,87.477,195,195
	c0,52.092-20.275,101.367-57.091,138.747C357.911,431.312,308.935,452,257,452z M257,90c-92.084,0-167,74.019-167,165
	c0,90.523,76.477,167,167,167c90.981,0,165-74.916,165-167C422,164.019,347.981,90,257,90z"/>
<g>
</g>
<g>
</g>
<g>
</g>
<g>
</g>
<g>
</g>
<g>
</g>
<g>
</g>
<g>
</g>
<g>
</g>
<g>
</g>
<g>
</g>
<g>
</g>
<g>
</g>
<g>
</g>
<g>
</g>
</svg>
