<svg height="512" viewBox="0 0 512 512" width="512" xmlns="http://www.w3.org/2000/svg"><g id="flat"><path d="m248 72h16v40h-16z" fill="#a83b32"/><path d="m461.657 125.657-11.314-11.314 7.03-7.03a49.613 49.613 0 0 0 14.627-35.313h16a65.511 65.511 0 0 1 -19.314 46.628z" fill="#a83b32"/><path d="m50.343 125.657-7.029-7.029a65.511 65.511 0 0 1 -19.314-46.628h16a49.613 49.613 0 0 0 14.627 35.313l7.03 7.03z" fill="#a83b32"/><path d="m488 16h-464a8 8 0 0 0 -8 8v12.5l16 19.2 6.92 8.3 10.93 13.12a8.006 8.006 0 0 0 12.3 0l10.93-13.12 22.92-27.5 22.92 27.5 10.93 13.12a8.006 8.006 0 0 0 12.3 0l10.93-13.12 22.92-27.5 22.92 27.5 10.93 13.12a8.006 8.006 0 0 0 12.3 0l10.93-13.12 22.92-27.5 22.92 27.5 10.93 13.12a8.006 8.006 0 0 0 12.3 0l10.93-13.12 22.92-27.5 22.92 27.5 10.93 13.12a8.006 8.006 0 0 0 12.3 0l10.93-13.12 22.92-27.5 22.92 27.5 10.93 13.12a8.006 8.006 0 0 0 12.3 0l10.93-13.12 6.92-8.3 16-19.2v-12.5a8 8 0 0 0 -8-8zm-432 43.5-22.92-27.5h45.84zm80 0-22.92-27.5h45.84zm80 0-22.92-27.5h45.84zm80 0-22.92-27.5h45.84zm80 0-22.92-27.5h45.84zm80 0-22.92-27.5h45.84z" fill="#277baa"/><path d="m288 160-32 8-32-8v-24a32 32 0 0 1 32-32 32 32 0 0 1 32 32z" fill="#dc4d41"/><path d="m216 160h80v32h-80z" fill="#c7463b"/><path d="m107.923 143.456-19.923 24.544-34.913 8.457-16.5-27.418a32 32 0 0 1 10.913-43.918 32 32 0 0 1 43.919 10.917z" fill="#dc4d41"/><path d="m72 200 64 256h168l-192-296z" fill="#c0f5f9"/><path d="m161.683 290.243h15.999v100.849h-15.999z" fill="#6fbbc6" transform="matrix(.886 -.464 .464 .886 -138.7 117.627)"/><path d="m126.628 263.106h16v17.788h-16z" fill="#6fbbc6" transform="matrix(.9 -.437 .437 .9 -105.309 86.154)"/><path d="m104 207.101h16v36.622h-16z" fill="#6fbbc6" transform="matrix(.9 -.437 .437 .9 -87.228 71.585)"/><path d="m404.077 143.456 19.923 24.544 34.913 8.457 16.5-27.418a32 32 0 0 0 -10.913-43.918 32 32 0 0 0 -43.919 10.917z" fill="#dc4d41"/><path d="m440 200-64 256h-168l192-296z" fill="#ffb1b5"/><path d="m292.996 332h99.342v15.999h-99.342z" fill="#eea5a9" transform="matrix(.464 -.886 .886 .464 -117.515 485.784)"/><path d="m368.478 264h17.788v16h-17.788z" fill="#eea5a9" transform="matrix(.437 -.9 .9 .437 -32.164 492.621)"/><path d="m381.689 217.412h36.622v16h-36.622z" fill="#eea5a9" transform="matrix(.437 -.9 .9 .437 22.485 486.741)"/><path d="m336 112h16v16h-16z" fill="#ffb1b5"/><path d="m320 128h16v16h-16z" fill="#ffb1b5"/><path d="m352 128h16v16h-16z" fill="#ffb1b5"/><path d="m336 144h16v16h-16z" fill="#ffb1b5"/><path d="m456 312h16v16h-16z" fill="#f55648"/><path d="m432 336h16v16h-16z" fill="#f55648"/><path d="m480 336h16v16h-16z" fill="#f55648"/><path d="m456 360h16v16h-16z" fill="#f55648"/><path d="m40 360h16v16h-16z" fill="#6cbae5"/><path d="m16 384h16v16h-16z" fill="#6cbae5"/><path d="m64 384h16v16h-16z" fill="#6cbae5"/><path d="m40 408h16v16h-16z" fill="#6cbae5"/><path d="m352 456h-192l42.62-156.29 29.38-107.71h48l29.38 107.71z" fill="#ea9d2d"/><path d="m48.755 157.666h80v32h-80z" fill="#c7463b" transform="matrix(.857 -.516 .516 .857 -76.839 70.634)"/><path d="m407.245 133.666h32v80h-32z" fill="#c7463b" transform="matrix(.516 -.857 .857 .516 56.206 446.755)"/><path d="m488 16h-464a8 8 0 0 0 -8 8v48a8 8 0 0 0 8 8h464a8 8 0 0 0 8-8v-48a8 8 0 0 0 -8-8zm-8 48h-448v-32h448z" fill="#428dc5"/><path d="m464 488h-416l8-32h400z" fill="#744630"/><g fill="#5b3726"><path d="m72 456h16v32h-16z"/><path d="m104 456h16v32h-16z"/><path d="m136 456h16v32h-16z"/><path d="m168 456h16v32h-16z"/><path d="m200 456h16v32h-16z"/><path d="m232 456h16v32h-16z"/><path d="m264 456h16v32h-16z"/><path d="m296 456h16v32h-16z"/><path d="m328 456h16v32h-16z"/><path d="m360 456h16v32h-16z"/><path d="m392 456h16v32h-16z"/><path d="m424 456h16v32h-16z"/></g><path d="m304 456h-144l42.62-156.29z" fill="#85bc94"/><path d="m352 456h-144l48-74 53.38-82.29z" fill="#d970a2"/><path d="m257.653 340.051 4.527 13.18a6 6 0 0 0 5.774 4.05l13.933-.233a6 6 0 0 1 3.708 10.794l-11.136 8.378a6 6 0 0 0 -2.067 6.743l4.526 13.18a6 6 0 0 1 -9.118 6.857l-11.409-8a6 6 0 0 0 -7.052.118l-11.139 8.382a6 6 0 0 1 -9.343-6.554l4.084-13.323a6 6 0 0 0 -2.291-6.671l-11.409-8a6 6 0 0 1 3.346-10.912l13.933-.232a6 6 0 0 0 5.636-4.241l4.085-13.323a6 6 0 0 1 11.412-.193z" fill="#fece2f"/></g></svg>