<svg height="512pt" viewBox="-50 0 512 512.00005" width="512pt" xmlns="http://www.w3.org/2000/svg"><path d="m190.550781 25.066406h30.078125v132.550782h-30.078125zm0 0" fill="#13496b"/><path d="m288.417969 45.144531-75.355469-43.15625c-4.652344-2.664062-10.375-2.648437-15.015625.039063-4.640625 2.691406-7.496094 7.648437-7.496094 13.011718v86.308594c0 5.367188 2.855469 10.324219 7.496094 13.011719 2.332031 1.351563 4.9375 2.027344 7.542969 2.027344 2.578125 0 5.160156-.660157 7.472656-1.988281l75.355469-43.152344c4.679687-2.679688 7.566406-7.660156 7.566406-13.050782 0-5.394531-2.886719-10.371093-7.566406-13.050781zm0 0" fill="#f93d47"/><path d="m342.390625 483.226562c-49.976563-22.347656-85.621094-63.191406-105.949219-121.402343-15.53125-44.472657-15.8125-82.875-15.8125-83.234375 0-8.308594-6.734375-15.042969-15.039062-15.042969-8.304688 0-15.039063 6.734375-15.039063 15.042969 0 .371094-.175781 37.972656-15.507812 82.359375-20.265625 58.671875-56.011719 99.808593-106.253907 122.277343-6.476562 2.898438-10.046874 9.929688-8.566406 16.867188 1.480469 6.941406 7.609375 11.902344 14.707032 11.902344h261.320312c7.097656 0 13.226562-4.960938 14.710938-11.902344 1.476562-6.9375-2.09375-13.96875-8.570313-16.867188zm0 0" fill="#13496b"/><path d="m342.390625 483.226562c-49.976563-22.347656-85.621094-63.191406-105.949219-121.402343-15.53125-44.472657-15.8125-82.875-15.8125-83.234375 0-8.308594-6.734375-15.042969-15.039062-15.042969v248.449219h130.660156c7.097656 0 13.226562-4.960938 14.710938-11.898438 1.476562-6.941406-2.09375-13.972656-8.570313-16.871094zm0 0" fill="#15283b"/><path d="m377.628906 263.550781h-344.078125c-8.304687 0-15.039062 6.734375-15.039062 15.039063v218.367187c0 8.304688 6.734375 15.039063 15.039062 15.039063h41.378907c2.117187 0 4.207031-.445313 6.140624-1.308594 57.316407-25.632812 99.640626-74.015625 122.402344-139.917969.738282-2.136719 1.441406-4.253906 2.117188-6.359375.675781 2.105469 1.378906 4.222656 2.117187 6.359375 22.761719 65.902344 65.089844 114.285157 122.402344 139.917969 1.933594.863281 4.027344 1.308594 6.140625 1.308594h41.378906c8.304688 0 15.039063-6.734375 15.039063-15.039063v-218.367187c0-8.304688-6.734375-15.039063-15.039063-15.039063zm0 0" fill="#f93d47"/><path d="m377.628906 263.550781h-172.039062v100.859375c.675781 2.105469 1.378906 4.222656 2.117187 6.359375 22.761719 65.902344 65.089844 114.285157 122.402344 139.917969 1.933594.863281 4.027344 1.308594 6.140625 1.308594h41.378906c8.304688 0 15.039063-6.734375 15.039063-15.039063v-218.367187c0-8.304688-6.734375-15.039063-15.039063-15.039063zm0 0" fill="#e00044"/><path d="m74.75 512h-41.203125c-8.304687 0-15.039063-6.734375-15.039063-15.039062v-218.375c0-8.304688 6.734376-15.039063 15.039063-15.039063h41.203125zm0 0" fill="#ff808c"/><path d="m336.425781 263.546875h41.203125c8.304688 0 15.039063 6.734375 15.039063 15.039063v218.375c0 8.304687-6.734375 15.039062-15.039063 15.039062h-41.203125zm0 0" fill="#f93d47"/><path d="m404.660156 276.21875-190.550781-130.996094c-5.132813-3.527344-11.90625-3.527344-17.039063 0l-190.550781 130.996094c-5.429687 3.734375-7.796875 10.5625-5.84375 16.855469 1.957031 6.289062 7.777344 10.578125 14.363281 10.578125h381.101563c6.585937 0 12.40625-4.289063 14.363281-10.578125 1.953125-6.292969-.414062-13.125-5.84375-16.855469zm0 0" fill="#f93d47"/><path d="m396.140625 303.652344c6.585937 0 12.410156-4.289063 14.363281-10.578125 1.953125-6.292969-.414062-13.125-5.84375-16.855469l-190.550781-130.996094c-2.566406-1.765625-5.542969-2.644531-8.519531-2.644531v161.074219zm0 0" fill="#e00044"/><path d="m313.714844 303.652344-95.074219-153.511719c-2.679687-4.675781-7.65625-7.5625-13.050781-7.5625-5.390625 0-10.371094 2.886719-13.050782 7.5625l-95.074218 153.511719zm0 0" fill="#fdf3f4"/><path d="m313.714844 303.652344-95.074219-153.511719c-2.679687-4.675781-7.65625-7.5625-13.050781-7.5625v161.074219zm0 0" fill="#e1e1f0"/><path d="m288.417969 45.144531-50.742188-29.0625v84.222657l50.742188-29.0625c4.679687-2.679688 7.566406-7.65625 7.566406-13.050782 0-5.390625-2.886719-10.367187-7.566406-13.046875zm0 0" fill="#e00044"/></svg>