<?xml version="1.0" encoding="iso-8859-1"?>
<!-- Generator: Adobe Illustrator 19.0.0, SVG Export Plug-In . SVG Version: 6.00 Build 0)  -->
<svg version="1.1" id="Layer_1" xmlns="http://www.w3.org/2000/svg" xmlns:xlink="http://www.w3.org/1999/xlink" x="0px" y="0px"
	 viewBox="0 0 512.003 512.003" style="enable-background:new 0 0 512.003 512.003;" xml:space="preserve">
<path style="fill:#3CC247;" d="M412.806,110.937c-20.848,6.257-40.703,16.133-58.539,29.456c0.494,18.438-1.72,37.259-6.952,55.951
	c-5.587,19.958-14.191,38.255-25.168,54.55c6.344,8.527,11.07,18.325,13.736,28.943c18.538-12.306,35.203-28.113,48.936-47.272
	c25.262-35.244,36.636-76.231,35.21-116.454C419.898,112.453,416.312,109.884,412.806,110.937z"/>
<path style="fill:#FFDB6C;" d="M332.029,72.477c-13.22,9.854-25.192,21.466-35.529,34.61c2.19,11.499,3.348,23.364,3.348,35.501
	c0,28.375-6.278,55.277-17.503,79.416c16.051,5.391,29.897,15.583,39.803,28.893c10.976-16.298,19.581-34.594,25.168-54.552
	c11.69-41.756,8.364-84.162-6.728-121.474C339.213,71.475,334.965,70.287,332.029,72.477z"/>
<path style="fill:#3CC247;" d="M256.169,217.72c9.158,0,17.956,1.521,26.183,4.284c11.223-24.139,17.496-51.044,17.496-79.418
	c0-43.362-14.635-83.302-39.229-115.163c-2.237-2.899-6.647-2.899-8.884,0c-24.593,31.862-39.229,71.801-39.229,115.163
	c0,28.372,6.272,55.276,17.492,79.413C238.223,219.238,247.015,217.72,256.169,217.72z"/>
<path style="fill:#FFDB6C;" d="M229.993,222.002c-11.225-24.137-17.503-51.04-17.503-79.416c0-12.137,1.158-24.002,3.348-35.501
	c-10.336-13.144-22.31-24.756-35.529-34.61c-2.936-2.188-7.184-1-8.557,2.394c-15.092,37.312-18.418,79.717-6.728,121.474
	c5.587,19.958,14.192,38.254,25.168,54.552C200.096,237.585,213.941,227.394,229.993,222.002z"/>
<path style="fill:#3CC247;" d="M190.191,250.895c-10.977-16.297-19.581-34.594-25.168-54.55
	c-5.233-18.693-7.446-37.514-6.952-55.951c-17.836-13.322-37.691-23.199-58.539-29.456c-3.508-1.053-7.092,1.516-7.222,5.175
	c-1.427,40.223,9.947,81.211,35.21,116.454c13.733,19.159,30.398,34.966,48.936,47.272
	C179.121,269.22,183.846,259.421,190.191,250.895z"/>
<path style="fill:#2DA85F;" d="M348.547,191.685c-0.392,1.553-0.799,3.107-1.233,4.658c-5.587,19.958-14.191,38.255-25.168,54.55
	c6.344,8.527,11.07,18.325,13.736,28.943c18.425-12.23,34.995-27.923,48.68-46.924C375.177,217.046,362.94,203.065,348.547,191.685z
	"/>
<path style="fill:#FFB966;" d="M322.147,250.895c10.976-16.298,19.581-34.594,25.168-54.552c0.434-1.551,0.843-3.103,1.236-4.657
	c-14.714-11.634-31.675-20.544-50.124-25.987c-2.435,19.888-7.953,38.822-16.081,56.301
	C298.395,227.394,312.24,237.585,322.147,250.895z"/>
<path style="fill:#2DA85F;" d="M298.426,165.701c-13.396-3.952-27.573-6.084-42.249-6.084c-14.677,0-28.854,2.131-42.249,6.084
	c2.433,19.887,7.947,38.82,16.072,56.298c8.223-2.761,17.016-4.28,26.168-4.28c9.158,0,17.956,1.521,26.183,4.284
	C290.478,204.524,295.992,185.589,298.426,165.701z"/>
<path style="fill:#FFB966;" d="M165.023,196.345c5.587,19.958,14.192,38.254,25.168,54.552
	c9.906-13.311,23.751-23.503,39.803-28.893c-8.127-17.477-13.645-36.41-16.081-56.296c-18.45,5.445-35.41,14.358-50.123,25.994
	C164.182,193.248,164.589,194.797,165.023,196.345z"/>
<path style="fill:#2DA85F;" d="M176.455,279.839c2.666-10.618,7.391-20.418,13.736-28.943
	c-10.977-16.297-19.581-34.594-25.168-54.55c-0.433-1.548-0.838-3.098-1.231-4.648c-14.39,11.38-26.626,25.361-36.009,41.23
	C141.466,251.922,158.034,267.611,176.455,279.839z"/>
<path style="fill:#FD4DD7;" d="M181.457,352.388l-7.247-48.547c-0.155-2.065-0.234-4.152-0.234-6.257
	c0-45.394,36.799-82.193,82.193-82.193s82.193,36.799,82.193,82.193c0,2.105-0.079,4.192-0.235,6.258l-6.555,52.148"/>
<path style="fill:#E846AA;" d="M333.105,343.798l5.023-39.956c0.155-2.066,0.234-4.153,0.234-6.258c0-2.21-0.113-4.394-0.284-6.56
	c-6.342-0.943-12.727-1.288-20.722-0.452c-10.764,1.126-24.696,4.418-40.741,13.45c-12.782,7.196-28.445,7.196-41.227,0
	c-16.045-9.033-29.976-12.325-40.741-13.45c-7.852-0.821-14.153-0.501-20.384,0.405c-0.174,2.181-0.288,4.38-0.288,6.606
	c0,2.105,0.079,4.191,0.234,6.257l5.833,39.078c7.865,2.165,15.425,5.497,22.385,9.972l107.488,2.579
	C317.031,350.305,324.876,346.401,333.105,343.798z"/>
<circle style="fill:#FFDB6C;" cx="256.165" cy="297.587" r="42.133"/>
<path style="fill:#FFB966;" d="M298.306,297.585c0-1.011-0.049-2.01-0.119-3.002c-6.625,2.087-13.851,5.094-21.573,9.441
	c-12.782,7.196-28.445,7.196-41.227,0c-7.596-4.276-14.71-7.254-21.248-9.336c-0.065,0.958-0.111,1.923-0.111,2.899
	c0,23.272,18.865,42.138,42.138,42.138S298.306,320.857,298.306,297.585z"/>
<path style="fill:#7C54B8;" d="M511.996,316.653c0.312-11.035-12.508-17.312-21.079-10.354c-9.753,7.919-22.26,15.606-37.704,20.312
	c-18.453,5.625-33.831,4.779-56.973,3.506c-44.163-2.429-53.253-11.884-78.884-9.203c-10.764,1.126-24.696,4.418-40.741,13.45
	c-12.782,7.196-28.445,7.196-41.227,0c-16.045-9.033-29.976-12.325-40.741-13.45c-25.631-2.681-34.723,6.774-78.885,9.203
	c-23.142,1.273-38.518,2.118-56.973-3.506c-15.443-4.707-27.95-12.394-37.704-20.312c-8.571-6.958-21.39-0.68-21.079,10.354
	c0.064,2.265,0.22,4.511,0.496,6.672c1.954,15.311,3.02,66.377,40.758,110.439c10.866,12.688,36.32,42.405,77.898,50.618
	c49.728,9.822,102.175-13.754,111.754-22.351c1.335-1.198,8.234-7.843,16.759-8.875c1.114-0.135,15.694-0.151,16.928,0
	c8.438,1.04,15.127,7.63,16.492,8.875c9.515,8.675,61.798,32.217,111.754,22.351c41.579-8.212,67.032-37.93,77.898-50.618
	c37.738-44.061,38.802-95.127,40.758-110.439C511.776,321.163,511.932,318.918,511.996,316.653z M208.915,417.307
	c-37.121,25.188-87.631,15.514-112.818-21.607l0,0l16.755-11.369c37.121-25.188,87.631-15.514,112.818,21.607l0,0L208.915,417.307z
	 M420.014,395.701c-25.188,37.121-75.698,46.793-112.818,21.607l-16.755-11.369l0,0c25.188-37.121,75.698-46.795,112.818-21.607
	L420.014,395.701L420.014,395.701z"/>
<g>
	<path style="fill:#674799;" d="M490.917,306.298c-9.753,7.919-22.26,15.606-37.703,20.312c-3.183,0.97-6.271,1.736-9.327,2.352
		c-1.938,19.832-6.195,65.145-40.158,104.8c-10.267,11.987-33.561,39.165-71.166,49.056c18.338,3.982,39.506,5.664,60.282,1.562
		c41.579-8.212,67.032-37.93,77.898-50.618c37.738-44.061,38.802-95.128,40.758-110.439c0.276-2.16,0.432-4.405,0.496-6.672
		C512.308,305.618,499.488,299.34,490.917,306.298z"/>
	<path style="fill:#674799;" d="M214.076,462.029c-1.366-1.245-8.055-7.834-16.492-8.875c-1.233-0.151-15.813-0.135-16.928,0
		c-8.526,1.032-15.424,7.677-16.759,8.875c-5.597,5.023-25.84,15.153-51.616,20.753c2.244,0.594,4.531,1.134,6.878,1.598
		c41.229,8.142,84.302-6.666,103.287-16.867C218.576,465.414,215.695,463.505,214.076,462.029z"/>
</g>
<circle style="fill:#7C54B8;" cx="256.177" cy="297.587" r="8.734"/>
<g>
	<circle style="fill:#FFDB6C;" cx="256.002" cy="380.98" r="8.734"/>
	<circle style="fill:#FFDB6C;" cx="223.756" cy="364.723" r="8.734"/>
	<circle style="fill:#FFDB6C;" cx="190.194" cy="348.454" r="8.734"/>
	<circle style="fill:#FFDB6C;" cx="155.456" cy="347.255" r="8.734"/>
	<circle style="fill:#FFDB6C;" cx="123.769" cy="352.39" r="8.734"/>
	<circle style="fill:#FFDB6C;" cx="92.187" cy="361.124" r="8.734"/>
	<circle style="fill:#FFDB6C;" cx="291.078" cy="364.723" r="8.734"/>
	<circle style="fill:#FFDB6C;" cx="324.64" cy="348.454" r="8.734"/>
	<circle style="fill:#FFDB6C;" cx="359.378" cy="347.255" r="8.734"/>
	<circle style="fill:#FFDB6C;" cx="391.065" cy="352.39" r="8.734"/>
	<circle style="fill:#FFDB6C;" cx="422.647" cy="361.124" r="8.734"/>
</g>
<g>
</g>
<g>
</g>
<g>
</g>
<g>
</g>
<g>
</g>
<g>
</g>
<g>
</g>
<g>
</g>
<g>
</g>
<g>
</g>
<g>
</g>
<g>
</g>
<g>
</g>
<g>
</g>
<g>
</g>
</svg>
