<svg viewBox="0 -71 512.00067 512" xmlns="http://www.w3.org/2000/svg"><path d="m223.691406 137.847656c40.621094 70.394532 4.339844 92.035156 4.339844 92.035156s-36.875 20.621094-77.496094-49.777343c-35.636718-61.757813-37.035156-129.226563-36.84375-144.855469.019532-1.554688 1.679688-2.515625 3.035156-1.753906 13.628907 7.648437 71.328126 42.589844 106.964844 104.351562zm0 0" fill="#51c4f5"/><path d="m116.726562 33.496094c-1.355468-.761719-3.015624.199218-3.035156 1.753906-.0625 5.109375.042969 15.761719 1.460938 29.945312 23.8125 17.125 57.789062 46.542969 81.773437 88.109376 23.988281 41.566406 21.160157 66.132812 14.820313 79.285156 10.09375.75 16.28125-2.707032 16.28125-2.707032s36.285156-21.640624-4.335938-92.035156c-35.636718-61.761718-93.335937-96.703125-106.964844-104.351562zm0 0" fill="#2bade3"/><path d="m361.46875 180.105469c-40.625 70.398437-77.496094 49.777343-77.496094 49.777343s-36.285156-21.640624 4.335938-92.035156c35.640625-61.757812 93.339844-96.703125 106.964844-104.351562 1.355468-.761719 3.015624.199218 3.035156 1.753906.195312 15.628906-1.203125 83.097656-36.839844 144.855469zm0 0" fill="#51c4f5"/><path d="m398.308594 35.25c-.019532-1.554688-1.679688-2.515625-3.035156-1.753906-4.457032 2.5-13.621094 7.917968-25.1875 16.238281-2.921876 29.195313-11.394532 73.34375-35.378907 114.910156-23.988281 41.570313-46.664062 51.402344-61.214843 52.484375 4.394531 9.121094 10.480468 12.753906 10.480468 12.753906s36.871094 20.621094 77.496094-49.777343c35.636719-61.757813 37.035156-129.226563 36.839844-144.855469zm0 0" fill="#2bade3"/><path d="m427.746094 186.769531c-62.238282 52.25-89.839844 20.253907-89.839844 20.253907s-26.699219-32.75 35.539062-85c54.597657-45.839844 120.765626-58.933594 136.183594-61.457032 1.535156-.25 2.765625 1.21875 2.253906 2.6875-5.160156 14.753906-29.539062 77.675782-84.136718 123.515625zm0 0" fill="#51c4f5"/><path d="m511.882812 63.253906c.511719-1.46875-.71875-2.9375-2.253906-2.6875-5.039062.828125-15.507812 2.78125-29.21875 6.640625-12.722656 26.433594-35.777344 65.023438-72.527344 95.875-36.75 30.851563-61.417968 32.332031-75.464843 28.371094 1.011719 10.074219 5.488281 15.570313 5.488281 15.570313s27.601562 31.996093 89.839844-20.253907c54.597656-45.839843 78.976562-108.761719 84.136718-123.515625zm0 0" fill="#2bade3"/><path d="m138.554688 121.507812c62.238281 52.253907 35.539062 85.003907 35.539062 85.003907s-27.601562 31.996093-89.839844-20.257813c-54.597656-45.835937-78.972656-108.757812-84.136718-123.511718-.511719-1.46875.71875-2.9375 2.253906-2.6875 15.417968 2.523437 81.585937 15.617187 136.183594 61.453124zm0 0" fill="#51c4f5"/><path d="m2.371094 60.054688c-1.535156-.25-2.765625 1.21875-2.253906 2.6875 1.6875 4.824218 5.429687 14.796874 11.609374 27.636718 28.230469 7.945313 70.214844 23.964844 106.964844 54.816406 36.75 30.851563 42.488282 54.902344 41.027344 69.429688 9.742188-2.75 14.375-8.113281 14.375-8.113281s26.699219-32.75-35.539062-85.003907c-54.597657-45.835937-120.765626-58.929687-136.183594-61.453124zm0 0" fill="#2bade3"/><path d="m298.238281 144.882812c0 81.289063-42.238281 81.878907-42.238281 81.878907s-42.238281-.589844-42.238281-81.878907c0-71.3125 32.507812-130.441406 40.488281-143.878906.792969-1.335937 2.710938-1.335937 3.503906 0 7.980469 13.4375 40.484375 72.566406 40.484375 143.878906zm0 0" fill="#51c4f5"/><path d="m257.753906 1.003906c-.792968-1.335937-2.710937-1.335937-3.503906 0-2.609375 4.394532-7.839844 13.671875-13.699219 26.664063 12.0625 26.742187 26.785157 69.21875 26.785157 117.214843 0 47.996094-14.722657 67.855469-26.785157 76.074219 8.367188 5.699219 15.449219 5.804688 15.449219 5.804688s42.238281-.589844 42.238281-81.878907c0-71.3125-32.503906-130.441406-40.484375-143.878906zm0 0" fill="#2bade3"/><path d="m495.582031 236.8125c1.75 21.453125.40625 60.007812-29.625 71.199219-9.878906 3.679687-17.753906 11.433593-20.90625 21.480469-5.316406 16.953124-17.640625 39.507812-45.582031 39.507812-51.015625.011719-96.714844-48.171875-143.46875-48.171875s-92.449219 48.183594-143.46875 48.171875c-27.941406 0-40.265625-22.554688-45.582031-39.507812-3.148438-10.046876-11.023438-17.800782-20.90625-21.480469-30.03125-11.191407-31.375-49.746094-29.625-71.199219.625-7.640625-1.496094-15.164062-5.621094-21.628906-10.332031-16.179688-10.933594-53.066406-10.7773438-66.824219.03125-2.679687 2.5820308-4.609375 5.1796878-3.914063 19.183593 5.128907 89.722656 22.910157 156.691406 26.082032 64.042969 3.019531 86.246094 39.578125 92.238281 52.886718.726563 1.621094 3.015625 1.621094 3.746094 0 5.988281-13.308593 28.191406-49.867187 92.234375-52.886718 66.972656-3.171875 137.507813-20.953125 156.691406-26.082032 2.597657-.695312 5.152344 1.234376 5.179688 3.914063.15625 13.757813-.445313 50.644531-10.773438 66.824219-4.128906 6.464844-6.25 13.988281-5.625 21.628906zm0 0" fill="#ff2c5c"/><path d="m511.980469 148.359375c-.03125-2.683594-2.582031-4.609375-5.179688-3.914063-5.359375 1.433594-14.726562 3.851563-26.90625 6.664063.03125 15.40625-1.089843 48.875-10.792969 64.074219-4.128906 6.464844-6.25 13.988281-5.625 21.628906 1.753907 21.453125.40625 60.007812-29.621093 71.199219-9.882813 3.679687-17.757813 11.433593-20.910157 21.480469-4.367187 13.925781-13.472656 31.621093-32.070312 37.5 6.125 1.277343 12.320312 2.007812 18.59375 2.007812 27.941406 0 40.265625-22.554688 45.582031-39.507812 3.148438-10.046876 11.027344-17.800782 20.90625-21.480469 30.03125-11.191407 31.375-49.746094 29.625-71.199219-.625-7.640625 1.496094-15.164062 5.625-21.628906 10.328125-16.179688 10.929688-53.070313 10.773438-66.824219zm0 0" fill="#e62753"/><path d="m194.886719 273.707031c9.230469-3.496093 12.996093-14.5625 7.800781-22.964843-8.625-13.945313-24.746094-32.347657-50.554688-34.5625-22.707031-1.953126-46.984374-.175782-63.632812 1.710937-10.882812 1.230469-17.179688 12.925781-12.269531 22.722656 8.972656 17.90625 24.914062 41.726563 46.832031 43.613281 30.089844 2.585938 56.136719-4.574218 71.824219-10.519531zm0 0" fill="#594f69"/><path d="m317.113281 273.707031c-9.230469-3.496093-12.996093-14.5625-7.800781-22.964843 8.628906-13.945313 24.75-32.347657 50.558594-34.5625 22.703125-1.953126 46.980468-.175782 63.628906 1.710937 10.882812 1.230469 17.179688 12.925781 12.273438 22.722656-8.976563 17.90625-24.914063 41.726563-46.832032 43.613281-30.09375 2.585938-56.140625-4.574218-71.828125-10.519531zm0 0" fill="#594f69"/><path d="m261.371094 165.132812 8.09375 16.269532c.871094 1.753906 2.558594 2.96875 4.507812 3.25l18.101563 2.609375c4.910156.707031 6.875 6.695312 3.320312 10.132812l-13.097656 12.664063c-1.414063 1.367187-2.054687 3.332031-1.722656 5.257812l3.089843 17.882813c.839844 4.851562-4.292968 8.554687-8.6875 6.261719l-16.1875-8.441407c-1.746093-.910156-3.828124-.910156-5.574218 0l-16.191406 8.441407c-4.390626 2.292968-9.527344-1.40625-8.6875-6.261719l3.09375-17.882813c.332031-1.925781-.3125-3.890625-1.722657-5.257812l-13.097656-12.664063c-3.554687-3.4375-1.59375-9.425781 3.316406-10.132812l18.101563-2.609375c1.949218-.28125 3.636718-1.496094 4.511718-3.25l8.09375-16.269532c2.195313-4.414062 8.539063-4.414062 10.738282 0zm0 0" fill="#ffd659"/><path d="m282.289062 210.058594c-1.410156 1.363281-2.046874 3.332031-1.71875 5.257812l3.089844 17.882813c.847656 4.855469-4.292968 8.554687-8.683594 6.269531l-2.335937-1.230469c-1.144531-31.652343-15.96875-43.472656-23.160156-70.789062l1.152343-2.316407c2.195313-4.414062 8.542969-4.414062 10.734376 0l8.097656 16.273438c.875 1.75 2.554687 2.96875 4.511718 3.246094l18.101563 2.609375c4.902344.710937 6.871094 6.699219 3.316406 10.132812zm0 0" fill="#ffbd54"/></svg>