<?xml version="1.0" encoding="iso-8859-1"?>
<!-- Generator: Adobe Illustrator 21.0.0, SVG Export Plug-In . SVG Version: 6.00 Build 0)  -->
<svg xmlns="http://www.w3.org/2000/svg" xmlns:xlink="http://www.w3.org/1999/xlink" version="1.1" id="Capa_1" x="0px" y="0px" viewBox="0 0 512 512" style="enable-background:new 0 0 512 512;" xml:space="preserve" width="512" height="512">
<g>
	<rect style="fill:#CAE8F9;" width="512" height="512"/>
	<rect x="255.75" style="fill:#A3D9F6;" width="256.25" height="512"/>
	<rect x="60" y="60" style="fill:#00A6FF;" width="392" height="392"/>
	<rect x="255.75" y="60" style="fill:#0088FF;" width="196.25" height="392"/>
	<path style="fill:#FFFFFF;" d="M258.66,127.43H175.5v260.9h30V283.1h53.16c42.92,0,77.84-34.92,77.84-77.84   C336.5,162.35,301.58,127.43,258.66,127.43z M258.66,253.1H205.5v-95.67h53.16c26.38,0,47.84,21.46,47.84,47.83   C306.5,231.64,285.04,253.1,258.66,253.1z"/>
	<path style="fill:#E1E1E3;" d="M336.5,205.26c0,42.92-34.92,77.84-77.84,77.84h-2.91v-30h2.91c26.38,0,47.84-21.46,47.84-47.84   c0-26.37-21.46-47.83-47.84-47.83h-2.91v-30h2.91C301.58,127.43,336.5,162.35,336.5,205.26z"/>
</g>















</svg>
