<?xml version="1.0" encoding="iso-8859-1"?>
<!-- Generator: Adobe Illustrator 19.0.0, SVG Export Plug-In . SVG Version: 6.00 Build 0)  -->
<svg version="1.1" id="Layer_1" xmlns="http://www.w3.org/2000/svg" xmlns:xlink="http://www.w3.org/1999/xlink" x="0px" y="0px"
	 viewBox="0 0 512.001 512.001" style="enable-background:new 0 0 512.001 512.001;" xml:space="preserve">
<path style="fill:#7C54B8;" d="M380.371,144.724c-42.655-12.904-76.883-30.882-102.313-47.198
	c-9.183-5.891-17.218-11.566-24.089-16.707c-5.733,18.867-1.555,44.839-10,72.636c-10.869,35.773-34.561,74.024-41.938,98.303
	c-25.588,84.218,9.762,169.534,78.959,190.558l7.733,2.35l7.733,2.35c69.197,21.024,146.035-30.205,171.623-114.423
	c10.532-34.66,29.198-96.097,42.93-141.292c4.363-14.362-6.212-28.857-21.219-29.183
	C459.926,161.468,422.176,157.372,380.371,144.724z M287.768,222.971c-13.033-8.345-21.608-21.363-25.391-36.409
	c15.249-2.858,30.66-0.517,43.692,7.828c13.033,8.345,21.607,21.363,25.391,36.409C316.213,233.657,300.802,231.316,287.768,222.971
	z M411.951,260.702c-15.472-0.315-29.58-6.944-40.661-17.802c11.514-10.398,25.882-16.445,41.354-16.128
	c15.472,0.315,29.581,6.944,40.661,17.802C441.79,254.97,427.423,261.018,411.951,260.702z"/>
<path style="fill:#674799;" d="M301.157,232.364v-3.14c-4.655-1.472-9.149-3.54-13.389-6.255
	c-13.033-8.345-21.608-21.363-25.391-36.409c13.373-2.507,26.87-1.013,38.78,5.022v-80.3c-8.357-4.618-16.077-9.25-23.1-13.757
	c-9.183-5.891-17.218-11.566-24.089-16.707c-3.614,11.895-7.761,45.74-5.112,47.119c-4.157,6.914,2.782,20.604-2.91,25.973
	c-11.562,38.053-35.997,71.785-43.916,97.847c-16.513,54.347-7.642,109.144,19.318,146.835
	C269.372,365.876,301.157,307.167,301.157,232.364z"/>
<path style="fill:#FFDB6C;" d="M139.519,76.296C95.4,76.35,57.737,69.242,28.777,61.126C14.327,57.076,0,67.885,0,82.891v147.661
	c0,88.02,58.627,159.374,130.946,159.374h8.082h8.082c72.319,0,130.946-71.354,130.946-159.374V82.892
	c0-15.009-14.334-25.814-28.786-21.763C220.508,69.189,183.197,76.242,139.519,76.296z M74.134,179.627
	c-14.896-4.196-26.884-14.158-34.88-27.455c13.759-7.168,29.185-9.408,44.081-5.213c14.896,4.196,26.884,14.158,34.88,27.455
	C104.456,181.582,89.03,183.822,74.134,179.627z M203.922,179.627c-14.896,4.196-30.322,1.955-44.081-5.213
	c7.995-13.295,19.984-23.258,34.88-27.455c14.896-4.196,30.322-1.955,44.081,5.213C230.807,165.469,218.818,175.431,203.922,179.627
	z"/>
<path style="fill:#FFB966;" d="M249.271,61.128c-25.437,7.129-57.571,13.461-94.869,14.868c30.3,6.131,63.066,15.166,80.087,42.978
	c9.27,15.147,11.523,32.866,13.47,50.178c2.561,22.762,3.095,45.736,2.406,68.618c-1.129,37.442-2.329,78.17-21.062,111.664
	c-2.487,4.447-5.232,8.617-8.161,12.583c34.369-28.724,56.916-76.887,56.916-131.465V82.892
	C278.056,67.881,263.723,57.078,249.271,61.128z"/>
<path style="fill:#674799;" d="M489.79,162.118c-14.841-0.323-31.646-1.517-49.914-4.173c5.09,3.404,9.688,7.621,13.567,12.885
	c7.335,9.953,10.799,22.133,12.426,34.239c2.533,18.855,2.094,38.024-0.438,56.85c-4.849,36.038-16.826,72.121-35.336,103.487
	c-23.156,39.239-58.555,72.319-101.274,86.322c59.327-0.287,117.621-47.91,139.26-119.133c10.532-34.66,29.198-96.097,42.93-141.292
	C515.372,176.94,504.795,162.445,489.79,162.118z"/>
<path style="fill:#FC4C59;" d="M142.1,338.463h-6.144c-24.694,0-44.711-20.018-44.711-44.711l0,0h95.565l0,0
	C186.811,318.445,166.794,338.463,142.1,338.463z"/>
<path style="fill:#E83A64;" d="M139.029,338.463h3.071c24.692,0,44.711-20.018,44.711-44.711l0,0h-47.783
	C139.029,293.751,139.029,338.463,139.029,338.463z"/>
<path style="fill:#FC4C59;" d="M313.743,350.14l5.879,1.786c23.626,7.179,36.96,32.151,29.781,55.777l0,0l-91.438-27.782l0,0
	C265.143,356.295,290.116,342.961,313.743,350.14z"/>
<path style="fill:#E83A64;" d="M349.407,407.698c7.179-23.626-6.155-48.6-29.781-55.777l-4.471-1.359l-14.671,42.271
	L349.407,407.698z"/>
<g>
</g>
<g>
</g>
<g>
</g>
<g>
</g>
<g>
</g>
<g>
</g>
<g>
</g>
<g>
</g>
<g>
</g>
<g>
</g>
<g>
</g>
<g>
</g>
<g>
</g>
<g>
</g>
<g>
</g>
</svg>
